<?xml version="1.0" standalone="no"?>
<!DOCTYPE svg PUBLIC "-//W3C//DTD SVG 1.1//EN" "http://www.w3.org/Graphics/SVG/1.1/DTD/svg11.dtd" >
<svg xmlns="http://www.w3.org/2000/svg" xmlns:xlink="http://www.w3.org/1999/xlink" version="1.1">
<metadata>
Created by FontForge 20190801 at Mon Oct 18 20:36:19 2004
 By www-data
(c) 1999-2000, Apostrophe. All rights reserved. apostrofe@mail.com
</metadata>
<defs>
<font id="FIGHTT3" horiz-adv-x="377" >
  <font-face 
    font-family="FIGHTT3"
    font-weight="400"
    font-stretch="normal"
    units-per-em="1000"
    panose-1="2 0 0 6 4 0 0 2 0 4"
    ascent="800"
    descent="-200"
    x-height="719"
    cap-height="719"
    bbox="-72.8 -232 830.818 1055"
    underline-thickness="50"
    underline-position="-125"
    unicode-range="U+0006-2122"
  />
<missing-glyph horiz-adv-x="500" 
 />
    <glyph glyph-name=".notdef" horiz-adv-x="500" 
 />
    <glyph glyph-name=".null" horiz-adv-x="0" 
 />
    <glyph glyph-name="nonmarkingreturn" horiz-adv-x="333" 
 />
    <glyph glyph-name="dotaccent" horiz-adv-x="190" 
d="M274 974h-110q-3 0 -5 -4l-39 -130q-2 -6 5 -6h110q3 0 5 4l39 130q2 6 -5 6z" />
    <glyph glyph-name="ring" horiz-adv-x="519" 
d="M457 810l44 144q6 21 6 39q0 29 -15.5 45t-40.5 16h-51q-31 0 -61 -25t-45 -73l-44 -144q-6 -21 -6 -38q0 -30 15.5 -46t40.5 -16h22q3 0 5 3l25 75q2 7 -5 7q-12 0 -12 13q0 4 1 7l38 129v-1q3 9 11.5 16.5t18.5 7.5q7 0 10 -3.5t3 -8.5q0 -3 -2 -9l-38 -128
q-3 -13 -19 -21q-3 0 -3 -3l-26 -77q-2 -7 5 -7h17q31 0 61.5 25t44.5 73z" />
    <glyph glyph-name="caron" horiz-adv-x="510" 
d="M546 1055h-94q-2 0 -4 -2l-110 -187l-13 174q0 5 -5 5h-93q-5 0 -5 -6l35 -327q0 -4 5 -4h85q2 0 4 2l199 337q4 8 -4 8z" />
    <glyph glyph-name="dotlessi" unicode="&#xd;" horiz-adv-x="205" 
d="M41 -5h124q3 0 5 4l215 714q2 6 -5 6h-124q-3 0 -5 -4l-215 -714q-2 -6 5 -6z" />
    <glyph glyph-name="fraction" horiz-adv-x="252" 
d="M476 733h-96q-1 0 -4 -3l-389 -742q-4 -7 4 -7h95q1 0 4 3l390 742q3 7 -4 7z" />
    <glyph glyph-name="Zcaron" horiz-adv-x="331" 
d="M617 1055h-94q-2 0 -4 -2l-110 -187l-13 174q0 5 -5 5h-93q-5 0 -5 -6l34 -320h-89q-3 0 -5 -4l-40 -130q-2 -6 5 -6h135l-280 -447l-39 -131q-2 -6 5 -6h303q3 0 5 4l39 130q2 6 -5 6h-160l287 447l40 131q2 6 -5 6h-96l194 328q4 8 -4 8z" />
    <glyph glyph-name="zcaron" horiz-adv-x="331" 
d="M19 -5h303q3 0 5 4l39 130q2 6 -5 6h-160l287 447l40 131q2 6 -5 6h-96l194 328q4 8 -4 8h-94q-2 0 -4 -2l-110 -187l-13 174q0 5 -5 5h-93q-5 0 -5 -6l34 -320h-89q-3 0 -5 -4l-40 -130q-2 -6 5 -6h135l-280 -447l-39 -131q-2 -6 5 -6z" />
    <glyph glyph-name="space" unicode=" " horiz-adv-x="181" 
 />
    <glyph glyph-name="exclam" unicode="!" horiz-adv-x="220" 
d="M224 212l169 500q2 7 -5 7h-125q-3 0 -5 -4l-133 -500q-2 -6 5 -6h89q3 0 5 3zM205 135h-111q-3 0 -5 -4l-39 -130q-2 -6 5 -6h111q3 0 5 4l39 130q2 6 -5 6z" />
    <glyph glyph-name="quotedbl" unicode="&#x22;" horiz-adv-x="320" 
d="M378 715l-82 -270q-2 -6 5 -6h95q3 0 5 4l82 270q2 6 -5 6h-95q-3 0 -5 -4zM230 715l-82 -270q-2 -6 5 -6h95q3 0 5 4l82 270q2 6 -5 6h-95q-3 0 -5 -4z" />
    <glyph glyph-name="numbersign" unicode="#" horiz-adv-x="362" 
d="M283 403h191q3 0 5 3l30 90q2 7 -5 7h-48l76 191q2 7 -5 7h-65q-4 0 -5 -3l-79 -195h-197q-4 0 -5 -3l-29 -90q-2 -7 5 -7h53l-41 -101q-2 -7 5 -7h66q3 0 5 3zM294 293h-197q-4 0 -5 -3l-29 -90q-2 -7 5 -7h54l-77 -191q-2 -7 5 -7h66q3 0 5 3l79 195h191q3 0 5 4l28 90
q2 6 -5 6h-47l40 99q2 7 -5 7h-66q-4 0 -5 -3zM184 -5h66q3 0 5 3l74 186q2 7 -5 7h-67q-4 0 -5 -3l-73 -186q-2 -7 5 -7zM325 509l74 185q2 7 -5 7h-67q-4 0 -5 -3l-73 -185q-2 -7 5 -7h66q3 0 5 3z" />
    <glyph glyph-name="dollar" unicode="$" horiz-adv-x="362" 
d="M180 101l-55 -182q-2 -6 5 -6h52q3 0 5 4l20 64q36 0 65.5 9t54 31t45.5 60t39 98q6 20 8.5 37t2.5 34q0 28 -7 51t-18.5 42.5t-25.5 36t-27 31.5q-22 25 -39.5 48t-17.5 52q0 11 5 28q17 58 67 58q16 0 27 -6.5t11 -22.5q0 -11 -4 -23l-14 -48q-2 -6 5 -6h110q3 0 5 4
l21 70v-1q11 35 11 65q0 38 -22.5 63t-79.5 27l18 62q2 6 -5 6h-52q-3 0 -5 -4l-19 -64q-36 -1 -66.5 -11.5t-56 -33.5t-45.5 -60t-36 -91q-6 -20 -8.5 -36.5t-2.5 -32.5q0 -29 7.5 -51t19.5 -40.5t27 -33.5t30 -28q23 -21 40 -41.5t17 -48.5q0 -14 -4 -27
q-13 -43 -36.5 -61t-57.5 -18h-9q-3 0 -5 -4z" />
    <glyph glyph-name="percent" unicode="%" horiz-adv-x="519" 
d="M369 467l44 144q6 21 6 39q0 29 -15.5 45t-40.5 16h-51q-31 0 -61 -25t-45 -73l-44 -144q-6 -21 -6 -38q0 -30 15.5 -46t40.5 -16h22q3 0 5 3l25 75q2 7 -5 7q-12 0 -12 13q0 4 1 7l38 129v-1q3 9 11.5 16.5t18.5 7.5q7 0 10 -3.5t3 -8.5q0 -3 -2 -9l-38 -128
q-3 -13 -19 -21q-3 0 -3 -3l-26 -77q-2 -7 5 -7h17q31 0 61.5 25t44.5 73zM410 90l38 130v-1q5 14 19 21q3 0 3 3l24 78q2 6 -5 6h-16q-31 0 -61 -25t-45 -73l-42 -144q-6 -21 -6 -39q0 -29 15.5 -45t40.5 -16h51q31 0 61 25t45 72l42 145q6 21 6 39q0 29 -15.5 45t-40.5 16
h-23q-3 0 -5 -4l-22 -75q-2 -6 5 -6q12 -2 12 -12q0 -2 -2 -8l-38 -129q-2 -8 -9.5 -15.5t-18.5 -7.5q-8 0 -11 4.5t-3 9.5q0 3 1 6zM702 711h-58q-2 0 -4 -2l-612 -716q-2 -2 -1 -5t5 -3h58q2 0 4 2l612 716q2 2 1 5t-5 3z" />
    <glyph glyph-name="ampersand" unicode="&#x26;" horiz-adv-x="456" 
d="M486 518q15 48 15 83q0 47 -26 68.5t-79 21.5q-69 0 -119 -44t-79 -142q-6 -20 -9.5 -41.5t-3.5 -42.5q0 -19 3 -36t10 -31q-48 -30 -86 -77t-55 -102q-13 -43 -13 -83q0 -52 28 -81.5t89 -29.5q47 0 82.5 20t73.5 61l2 -4l2 -4q6 -14 11 -25t13.5 -18.5t21 -11.5
t33.5 -4h43q3 0 5 4l38 126q2 6 -5 6h-28q-8 2 -12 8t-7 16q-1 2 1 -0.5l2 -2.5q1 0 -1.5 4.5t-11.5 20.5l135 165q2 2 1 5t-5 3h-125q-2 0 -4 -2l-50 -60l-22 51q23 17 42 33t35.5 36t30 46t24.5 64zM203 117q-15 0 -22 8t-7 22q0 11 4 23q7 25 22 45t35 35l37 -85
q-42 -48 -69 -48zM308 473q0 20 6 41v-1q9 29 22 42.5t27 13.5q19 0 19 -22q0 -9 -5 -27q-8 -29 -21 -46t-43 -39q-5 18 -5 38z" />
    <glyph glyph-name="quotesingle" unicode="'" horiz-adv-x="174" 
d="M233 714l-82 -270q-2 -6 5 -6h95q3 0 5 4l82 270q2 6 -5 6h-95q-3 0 -5 -4z" />
    <glyph glyph-name="parenleft" unicode="(" horiz-adv-x="252" 
d="M224 -1l30 100q2 6 -5 6h-29q-34 0 -34 16q0 5 3 14l133 441q5 20 17.5 26.5t35.5 6.5h29q3 0 5 4l30 100q2 6 -5 6h-75q-45 0 -81.5 -28t-54.5 -91l-146 -484v1q-9 -29 -9 -53q0 -35 20.5 -52t55.5 -17h75q3 0 5 4z" />
    <glyph glyph-name="parenright" unicode=")" horiz-adv-x="252" 
d="M57 101l-30 -100q-2 -6 5 -6h76q45 0 80.5 28t54.5 91l146 484q5 15 6.5 28t1.5 24q0 35 -19.5 52t-54.5 17h-76q-3 0 -5 -4l-30 -100q-2 -6 5 -6h29q34 0 34 -17v-6t-2 -8l-133 -440q-6 -20 -18.5 -26.5t-35.5 -6.5h-29q-3 0 -5 -4z" />
    <glyph glyph-name="asterisk" unicode="*" horiz-adv-x="346" 
d="M467 535l34 62q2 2 0 5l-30 41q-4 4 -7 1l-100 -71l65 113q2 3 0 5l-33 40q-3 3 -7 1l-57 -40q-2 -2 -2 -4l-2 -118l-60 73q-4 4 -7 1l-54 -41q-2 -2 -2 -4l-4 -62q0 -5 5 -5h93l-95 -62q-2 -2 -2 -4l-6 -64q0 -5 5 -5h59q1 0 4 3l63 112l-5 -110q0 -5 5 -5h59q1 0 4 3
l34 64q2 3 0 5l-59 63h98q1 0 4 3z" />
    <glyph glyph-name="plus" unicode="+" horiz-adv-x="510" 
d="M569 319h-438q-3 0 -5 -4l-35 -112q-2 -6 5 -6h164l-58 -196q-2 -6 5 -6h96q3 0 5 4l59 198h167q3 0 5 4l35 112q2 6 -5 6zM416 368l48 146q2 7 -5 7h-96q-4 0 -5 -3l-48 -146q-2 -7 5 -7h96q3 0 5 3z" />
    <glyph glyph-name="comma" unicode="," horiz-adv-x="181" 
d="M185 135h-110q-3 0 -5 -4l-39 -130q-2 -6 5 -6h32l-84 -122q-4 -8 4 -8h62q2 0 4 2l97 131l39 131q2 6 -5 6z" />
    <glyph glyph-name="hyphen" unicode="-" horiz-adv-x="268" 
d="M96 193h196q3 0 5 4l36 120q2 6 -5 6h-196q-3 0 -5 -4l-36 -120q-2 -6 5 -6z" />
    <glyph glyph-name="period" unicode="." horiz-adv-x="181" 
d="M185 135h-110q-3 0 -5 -4l-39 -130q-2 -6 5 -6h110q3 0 5 4l39 130q2 6 -5 6z" />
    <glyph glyph-name="slash" unicode="/" horiz-adv-x="252" 
d="M476 733h-96q-1 0 -4 -3l-389 -742q-4 -7 4 -7h95q1 0 4 3l390 742q3 7 -4 7z" />
    <glyph glyph-name="zero" unicode="0" horiz-adv-x="362" 
d="M366 531l-110 -364q-12 -37 -28 -44q-3 0 -3 -4l-37 -127q-2 -6 5 -6q72 3 117.5 39t70.5 116l124 412q11 39 11 66q0 50 -31.5 71t-91.5 21q-77 0 -127 -36t-75 -120l-124 -412v1q-12 -38 -12 -67q0 -46 28.5 -67.5t82.5 -23.5q3 0 5 4l36 127q2 3 -2 5q-6 3 -6 16
q0 7 5 27l110 364v-1q8 26 19 37.5t23 11.5q16 0 16 -18q0 -10 -6 -28z" />
    <glyph glyph-name="one" unicode="1" horiz-adv-x="362" 
d="M310 565l-179 -563q-2 -7 5 -7h121q3 0 5 4l210 696q2 6 -5 6h-114q-3 0 -5 -4l-38 -133v1z" />
    <glyph glyph-name="two" unicode="2" horiz-adv-x="362" 
d="M27 -5h273q5 0 5 5q0 20 4.5 38.5t9.5 34.5v-1q4 11 6.5 21t2.5 19q0 13 -11 22h-111q34 45 65.5 80.5t61.5 67.5q27 29 51 56.5t44.5 56t37 61t28.5 72.5q9 30 14 53.5t5 43.5q0 47 -28.5 66.5t-93.5 19.5q-45 0 -78.5 -11t-57.5 -32.5t-41 -53.5t-29 -74v1l-17 -52
q-2 -7 5 -7h120q3 0 5 3l14 44q8 27 17.5 37t24.5 10q9 0 13.5 -3t4.5 -12q0 -10 -8 -39q-5 -16 -18.5 -36t-32.5 -43.5t-42 -48.5t-47 -52l-54 -60t-50 -58.5t-39.5 -55.5t-23.5 -50l-35 -117q-2 -6 5 -6z" />
    <glyph glyph-name="three" unicode="3" horiz-adv-x="362" 
d="M212 120h-40q-4 0 -5 -3l-39 -121q-2 -7 4 -7q10 -2 21.5 -3t25.5 -1q77 0 126 36t75 120l32 105q5 17 7.5 33t2.5 30q0 23 -9 39t-30 22q42 10 65 42.5t37 80.5v-1l19 60q11 39 11 67q0 49 -31 70.5t-91 21.5q-77 0 -126.5 -36t-74.5 -120l-21 -67q-2 -6 5 -6h115
q3 0 5 4l16 51q6 23 16.5 31.5t24.5 8.5q20 0 20 -17q0 -4 -1 -9t-3 -12l-19 -63q-7 -23 -17.5 -31.5t-24.5 -8.5h-56q-3 0 -5 -4l-39 -128q-2 -6 5 -6h56q18 0 18 -17q0 -7 -1.5 -17t-6.5 -24l-18 -61v1q-11 -36 -22 -48t-27 -12z" />
    <glyph glyph-name="four" unicode="4" horiz-adv-x="362" 
d="M93 294l-39 -127q-2 -6 5 -6h169q3 0 5 3l39 120l-35 -117l-49 -166q-2 -6 5 -6h116q3 0 5 4l48 162h39q3 0 5 4l39 126q2 6 -5 6h-36l120 398q2 6 -5 6h-165q-2 0 -4 -2zM268 293h-59l134 226l-70 -232q0 6 -5 6z" />
    <glyph glyph-name="five" unicode="5" horiz-adv-x="362" 
d="M188 193h-98q-4 0 -5 -3l-17 -48q-8 -20 -11 -38t-3 -33q0 -47 32 -68.5t91 -21.5q77 0 126.5 36.5t76.5 120.5l66 224v-1q5 14 6.5 27t1.5 25q0 39 -20.5 60.5t-52.5 21.5q-17 0 -41 -5.5t-41 -22.5l29 94h153q3 0 5 3l19 54v45q-1 2 -1.5 4.5t-1.5 4.5l1 -1
q-2 8 -8.5 17.5t-26.5 12.5h-215q-3 0 -5 -4l-116 -380q-2 -6 5 -6h102q1 0 4 3l6 11q11 43 40 43q18 0 18 -20q0 -12 -8 -42l-38 -125q-11 -38 -22.5 -51t-26.5 -13h-18q-8 0 -13.5 2t-5.5 11q0 7 6 24l12 32q2 7 -5 7z" />
    <glyph glyph-name="six" unicode="6" horiz-adv-x="362" 
d="M290 280l-38 -128q-5 -18 -16 -25t-23 -7q-16 0 -16 13q0 6 3 17q20 67 35.5 120t29 97.5t26 84.5t25.5 82q13 43 40 43q17 0 17 -16q0 -8 -5 -25l-14 -46q-2 -6 5 -6h121q3 0 5 4l19 63q12 39 12 70q0 45 -28.5 67.5t-94.5 22.5q-43 0 -76 -10.5t-57.5 -31.5t-42.5 -54
t-32 -78l-120 -398q-10 -33 -10 -62q0 -92 124 -92q80 0 128.5 36.5t71.5 115.5l48 160v-1q5 16 7.5 31t2.5 29q0 38 -21.5 60.5t-65.5 22.5q-10 0 -27.5 -3.5t-35.5 -16.5l-33 -104q-2 -8 6 -6t13 2q8 0 14 -3.5t6 -12.5q0 -6 -3 -15z" />
    <glyph glyph-name="seven" unicode="7" horiz-adv-x="362" 
d="M350 561l-298 -559q-4 -7 4 -7h128q1 0 4 3l310 583l34 114q2 6 -5 6h-272q-3 0 -5 -4l-40 -130q-2 -6 5 -6h135z" />
    <glyph glyph-name="eight" unicode="8" horiz-adv-x="362" 
d="M92 241l-31 -102q-11 -39 -11 -65q0 -50 33 -69.5t96 -19.5q40 0 72.5 8t57.5 26t43.5 47t30.5 71l31 100v-1q7 21 10 39.5t3 33.5q0 42 -32 59l-98 4q-3 0 -5 -4l-16 -51q-2 -6 4 -6q17 -3 17 -17q0 -4 -2 -10l-39 -132q-10 -32 -41 -32q-21 0 -21 17q0 6 1 9l39 132v-1
q9 31 36 34q4 0 4 4l16 51q2 6 -5 6l-72 3h-2q-42 -5 -70.5 -36.5t-48.5 -97.5zM298 489l10 32q9 31 21 43.5t27 12.5q18 0 18 -20q0 -12 -6 -34l-10 -32q-8 -27 -18 -39.5t-23 -15.5q-4 0 -4 -3l-17 -52q-2 -7 5 -7l79 -3q48 13 70 48.5t38 86.5l19 62q4 14 6 25.5t2 23.5
q0 45 -30.5 69.5t-91.5 24.5q-76 0 -126 -37.5t-70 -103.5l-19 -62q-6 -21 -10 -39t-4 -35q0 -38 26 -55l99 -4q3 0 5 3l17 50q2 7 -5 7q-15 1 -15 18q0 6 2 15t5 21z" />
    <glyph glyph-name="nine" unicode="9" horiz-adv-x="362" 
d="M283 254l-27 -92v1q-13 -43 -41 -43q-16 0 -16 15q0 7 5 25l13 47q2 6 -5 6h-121q-3 0 -5 -4l-19 -64q-12 -39 -12 -69q0 -45 29 -68t95 -23q86 0 133 42.5t74 131.5l120 398q10 34 10 63q0 91 -123 91q-80 0 -129 -36t-72 -116l-48 -159v1q-5 -16 -7.5 -31t-2.5 -29
q0 -39 21.5 -61.5t65.5 -22.5q11 0 31 4t39 20q-2 -6 -4 -12.5t-4 -14.5zM281 416l38 128q9 33 37 33q18 0 18 -14q0 -7 -3 -17q-11 -38 -18.5 -63.5t-14.5 -46.5q-4 -12 -7.5 -23t-6.5 -22q-4 4 -7 1q-8 -6 -21 -6q-18 0 -18 13q0 6 3 17z" />
    <glyph glyph-name="colon" unicode=":" horiz-adv-x="181" 
d="M293 494h-110q-3 0 -5 -4l-40 -130q-2 -6 5 -6h110q3 0 5 4l40 130q2 6 -5 6zM185 135h-110q-3 0 -5 -4l-39 -130q-2 -6 5 -6h110q3 0 5 4l39 130q2 6 -5 6z" />
    <glyph glyph-name="semicolon" unicode=";" horiz-adv-x="181" 
d="M185 135h-110q-3 0 -5 -4l-39 -130q-2 -6 5 -6h32l-84 -122q-4 -8 4 -8h62q2 0 4 2l97 131l39 131q2 6 -5 6zM293 495h-110q-3 0 -5 -4l-38 -130q-2 -6 5 -6h110q3 0 5 4l38 130q2 6 -5 6z" />
    <glyph glyph-name="less" unicode="&#x3c;" horiz-adv-x="510" 
d="M249 257l350 149q3 0 3 4l33 108q1 3 -1.5 5.5t-5.5 0.5l-503 -216q-3 0 -3 -4l-27 -90q-2 -3 2 -5l373 -216q6 -4 8 3l32 108q1 3 -3 5z" />
    <glyph glyph-name="equal" unicode="=" horiz-adv-x="510" 
d="M573 311l34 112q2 6 -5 6h-438q-3 0 -5 -4l-34 -112q-2 -6 5 -6h438q3 0 5 4zM507 91l33 112q2 6 -5 6h-438q-3 0 -5 -4l-33 -112q-2 -6 5 -6h438q3 0 5 4z" />
    <glyph glyph-name="greater" unicode="&#x3e;" horiz-adv-x="510" 
d="M414 259l-349 -149q-3 0 -3 -4l-32 -108q-1 -3 1.5 -5.5t5.5 -0.5l503 216q3 0 3 4l27 90q2 3 -2 5l-373 216q-6 4 -8 -3l-33 -108q-1 -3 3 -5z" />
    <glyph glyph-name="question" unicode="?" horiz-adv-x="346" 
d="M171 211h111q3 0 5 4l17 56q12 40 32.5 62.5t43.5 42.5q2 2 5 4t5 4h-1q13 12 26.5 27t27 34.5t26 45.5t23.5 62q13 43 13 79q0 101 -113 101q-38 0 -68.5 -9t-55.5 -29t-44 -53.5t-33 -81.5v1l-19 -60q-2 -7 5 -7h111q3 0 5 4l13 45v-1q12 39 24 54t24 15q13 0 13 -19
q0 -17 -10 -47q-11 -37 -32 -63t-46 -49q-26 -24 -48.5 -50.5t-35.5 -65.5l-29 -100q-2 -6 5 -6zM256 135h-111q-3 0 -5 -4l-39 -130q-2 -6 5 -6h111q3 0 5 4l39 130q2 6 -5 6z" />
    <glyph glyph-name="at" unicode="@" horiz-adv-x="680" 
d="M477 134q20 0 61 14t87 48t89 89.5t69 139.5q8 25 11 48t3 46q0 50 -17 89.5t-47 67.5t-71 42.5t-88 14.5q-67 0 -135 -29t-127.5 -79.5t-106.5 -119t-71 -148.5q-19 -64 -19 -124q0 -57 17 -103.5t48.5 -79.5t76 -51t99.5 -18q79 0 157 40.5t146 115.5q2 2 1 5t-5 3h-80
q-42 -32 -91 -52t-98 -20q-81 0 -127 46.5t-46 127.5q0 48 18 108q18 61 50 113t73.5 90t90.5 59.5t102 21.5q74 0 117 -37.5t43 -110.5q0 -40 -15 -92q-12 -39 -28 -68.5t-34 -49.5t-35.5 -30t-31.5 -10q-3 0 -3 3q0 2 3 11q5 18 9 26q2 5 4.5 9t1.5 2l117 244q3 7 -5 7
h-72q-1 0 -4 -3l-175 -354q-2 -10 -2 -13q0 -20 11.5 -29.5t28.5 -9.5zM385 254q-20 0 -30.5 12t-10.5 32q0 14 6 34q6 21 19 41t30.5 35.5t37 25.5t38.5 10q20 0 29.5 -11t9.5 -31q0 -9 -1 -14q-1 -4 3 -5.5t6 2.5l56 113q-10 32 -32 46.5t-54 14.5q-41 0 -80 -20.5
t-72.5 -54t-59.5 -76.5t-39 -89q-9 -30 -9 -60q0 -53 27.5 -87t72.5 -34q20 0 43 11.5t45 28.5l58 118q2 4 -1.5 6t-6.5 -1q-18 -21 -40 -34t-45 -13z" />
    <glyph glyph-name="A" unicode="A" 
d="M3 -5h130q3 0 5 3l49 123h76l-22 -120q-2 -6 5 -6h128q5 0 5 4l112 714q0 6 -5 6h-165q-2 0 -5 -3l-318 -714q-2 -3 0 -5t5 -2zM291 261h-48l108 275z" />
    <glyph glyph-name="B" unicode="B" 
d="M157 440l-125 -439q-2 -6 5 -6h185q75 0 118 37.5t66 112.5l33 107q5 17 7.5 30.5t2.5 26.5q0 51 -43 66q45 19 69.5 54.5t35.5 75.5l19 62q5 19 8 35t3 31q0 43 -26 64.5t-82 21.5h-181q-3 0 -5 -4l-39 -128q-2 -6 5 -6h82q30 0 44.5 -0.5t18.5 -1t6 -0.5h4
q11 0 15.5 -3.5t4.5 -14.5v-9q0 -4 -2 -10q0 -2 0.5 -4t0.5 -4q0 -11 -10 -23q-6 -22 -11.5 -35t-11.5 -20.5t-13 -10t-16 -2.5l-163 1q-3 0 -5 -4zM257 303h25q14 0 20.5 -3t6.5 -14q0 -9 -3.5 -25t-10.5 -41v1q-9 -29 -16 -46t-14 -26t-15.5 -11.5t-20.5 -2.5h-22z" />
    <glyph glyph-name="C" unicode="C" horiz-adv-x="362" 
d="M193 561l-122 -406q-15 -48 -15 -82q0 -48 30 -70t95 -22h12q3 0 6 0.5t6 0.5t5 4l37 135q1 4 -1.5 5.5t-5.5 -0.5q-10 -5 -20 -5q-18 0 -18 16q0 8 5 28l115 382q8 27 18.5 36.5t24.5 9.5q8 0 14 -4.5t6 -12.5q0 -1 -2 -9l-31 -107q-2 -6 5 -6h124q3 0 5 4l30 101
q14 48 14 80q0 49 -30.5 71.5t-95.5 22.5q-86 0 -135.5 -40.5t-75.5 -131.5z" />
    <glyph glyph-name="D" unicode="D" 
d="M215 580l143 -1q27 0 27 -19q0 -7 -1 -11q-2 -17 -8.5 -40.5t-20.5 -65.5q-12 -39 -31 -98.5t-45 -151.5v1q-10 -29 -18.5 -42t-20.5 -16q-4 0 -4 -3l-51 -131q-2 -7 5 -7q42 0 75 7.5t59 27t46 53t36 84.5l113 378q8 26 12 47t4 38q0 52 -33.5 70.5t-96.5 18.5h-153
q-3 0 -5 -4l-37 -129q-2 -6 5 -6z" />
    <glyph glyph-name="E" unicode="E" horiz-adv-x="314" 
d="M247 715l-215 -714q-2 -6 5 -6h255q3 0 5 4l39 130q2 6 -5 6h-124l50 168h121q3 0 5 4l40 130q2 6 -5 6h-118l40 136h127q3 0 5 4l40 130q2 6 -5 6h-255q-3 0 -5 -4z" />
    <glyph glyph-name="F" unicode="F" horiz-adv-x="314" 
d="M247 715l-215 -714q-2 -6 5 -6h124q3 0 5 4l91 304h121q3 0 5 4l40 130q2 6 -5 6h-118l40 136h127q3 0 5 4l40 130q2 6 -5 6h-255q-3 0 -5 -4z" />
    <glyph glyph-name="G" unicode="G" horiz-adv-x="383" 
d="M361 28l116 385q2 6 -5 6h-119q-4 0 -5 -3l-82 -259q-7 -20 -16 -28t-26 -8q-23 0 -23 15q0 2 1 7t3 11l122 404q8 35 42 35q17 0 20 -9q2 -4 5 -4t5 4l48 140q2 7 -5 7q-8 1 -17.5 1.5t-20.5 0.5q-86 0 -135.5 -40.5t-75.5 -131.5l-131 -433q-6 -21 -6 -36
q0 -26 11.5 -44t30.5 -29.5t43 -16.5t48 -5h18q18 0 37.5 0.5t39 3.5t37 9.5t30.5 18.5q0 -3 4 -4t6 3z" />
    <glyph glyph-name="H" unicode="H" horiz-adv-x="394" 
d="M247 715l-215 -714q-2 -6 5 -6h124q3 0 5 4l91 304h61l-90 -302q-2 -6 5 -6h124q3 0 5 4l215 714q2 6 -5 6h-124q-3 0 -5 -4l-82 -272h-61l81 270q2 6 -5 6h-124q-3 0 -5 -4z" />
    <glyph glyph-name="I" unicode="I" horiz-adv-x="205" 
d="M41 -5h124q3 0 5 4l215 714q2 6 -5 6h-124q-3 0 -5 -4l-215 -714q-2 -6 5 -6z" />
    <glyph glyph-name="J" unicode="J" horiz-adv-x="346" 
d="M193 230h-121q-3 0 -5 -4l-21 -71q-8 -26 -12 -47.5t-4 -38.5q0 -51 32 -69.5t95 -18.5q41 0 73 8t57 27.5t44.5 53t34.5 83.5l168 560q2 6 -5 6h-124q-3 0 -5 -4l-167 -554q-7 -22 -16 -31t-25 -9q-19 0 -19 14q0 7 5 24l20 65q2 6 -5 6z" />
    <glyph glyph-name="K" unicode="K" horiz-adv-x="394" 
d="M272 354h128q1 0 4 3l204 355q3 7 -4 7h-131q-2 0 -4 -2l-178 -303l90 299q2 6 -5 6h-124q-3 0 -5 -4l-215 -714q-2 -6 5 -6h124q3 0 5 4z" />
    <glyph glyph-name="L" unicode="L" horiz-adv-x="299" 
d="M37 -5h255q3 0 5 4l39 130q2 6 -5 6h-124l174 578q2 6 -5 6h-124q-3 0 -5 -4l-215 -714q-2 -6 5 -6z" />
    <glyph glyph-name="M" unicode="M" horiz-adv-x="582" 
d="M350 195l101 518q2 6 -5 6h-197q-3 0 -5 -4l-215 -714q-2 -6 5 -6h117q3 0 5 4l164 543l-96 -541q-2 -6 5 -6h124q3 0 5 3l229 538l-161 -535q-2 -6 5 -6h117q3 0 5 4l215 714q2 6 -5 6h-197q-4 0 -5 -3z" />
    <glyph glyph-name="N" unicode="N" horiz-adv-x="456" 
d="M372 251l43 463q0 5 -5 5h-158q-3 0 -5 -4l-215 -714q-2 -6 5 -6h118q3 0 5 4l137 456l-39 -455q0 -5 5 -5h156q3 0 5 4l215 714q2 6 -5 6h-117q-3 0 -5 -4z" />
    <glyph glyph-name="O" unicode="O" 
d="M193 561l-122 -406q-8 -26 -12 -47t-4 -38q0 -52 33.5 -70.5t96.5 -18.5q41 0 74 7.5t59 27t46 53t36 84.5l122 406q15 51 15 85q0 52 -33 70.5t-96 18.5q-42 0 -74.5 -7.5t-58.5 -27t-46 -53t-36 -84.5zM205 154l122 404q8 35 42 35q22 0 22 -16q0 -7 -3 -17l-122 -404
v1q-7 -20 -16 -28t-26 -8q-23 0 -23 15q0 2 1 7t3 11z" />
    <glyph glyph-name="P" unicode="P" horiz-adv-x="362" 
d="M238 247l44 144l2 2l56 186h28q10 0 15 -2t5 -12q0 -11 -5 -32t-16 -56q-8 -28 -15 -45.5t-13.5 -27.5t-14 -13.5t-16.5 -3.5h-4q-4 0 -5 -3l-44 -130q-2 -7 5 -7h6q47 0 80.5 8t58 27t42 51t32.5 81l41 136q16 51 16 87q0 47 -31 64.5t-100 17.5h-153q-3 0 -5 -4
l-215 -714q-2 -6 5 -6h124q3 0 5 4l71 237q0 4 -1 5q0 2 2 6z" />
    <glyph glyph-name="Q" unicode="Q" 
d="M205 154l122 404q7 33 38 35q3 0 5 3l42 130q2 7 -5 7q-42 0 -75 -8t-58.5 -27.5t-45 -52.5t-35.5 -84l-122 -406q-8 -26 -12 -47t-4 -38q0 -38 19 -57.5t57 -25.5l-16 -56q-12 -39 -12 -62q0 -32 19 -43t54 -11h84q3 0 5 4l34 112q2 6 -5 6h-47q-17 0 -17 18q0 3 2 13
v-1l6 19q29 4 53.5 14.5t44 30t35.5 49.5t29 73l122 406q15 51 15 84q0 51 -30.5 69.5t-87.5 20.5q-3 0 -5 -4l-37 -128q-1 -4 4 -6l3 -1.5t1 -5.5q0 -10 -5.5 -35t-19 -74t-36.5 -127.5t-58 -195.5v1q-7 -20 -16 -28t-26 -8q-23 0 -23 15q0 2 1 7t3 11z" />
    <glyph glyph-name="R" unicode="R" 
d="M318 579h27q21 0 21 -18q0 -15 -9 -49q-12 -44 -22.5 -56.5t-27.5 -12.5q-5 0 -5 -4l-28 -130q-2 -6 4 -6q21 -2 21 -19q0 -7 -1 -11l-62 -243l1 1q-2 -5 -2.5 -8t-0.5 -7v-10q0 -4 2 -8q1 -3 5 -3h124q7 0 5 7q-2 6 -2 9q0 8 3 22.5t11 43.5l40 155q12 45 12 74
q0 53 -38 68q19 6 34 18t25.5 27t17.5 31.5t11 31.5l22 85q5 18 7.5 33.5t2.5 29.5q0 51 -34 70t-100 19h-159q-3 0 -5 -4l-186 -714q-2 -6 5 -6h124q3 0 5 4z" />
    <glyph glyph-name="S" unicode="S" horiz-adv-x="346" 
d="M359 494h121q3 0 5 4l17 56q15 49 15 83q0 52 -31.5 74t-93.5 22q-45 0 -79.5 -10.5t-60.5 -33t-45 -58t-34 -84.5q-16 -54 -16 -95q0 -26 5.5 -46.5t14 -38t19.5 -32t22 -27.5q17 -21 31 -42t14 -51q0 -17 -6 -39q-9 -29 -20 -42t-29 -13q-6 0 -10 1q-4 2 -6 -3
l-46 -131q-2 -7 5 -7h18q46 0 80.5 9.5t60.5 33t45.5 61.5t36.5 95q8 27 11.5 50.5t3.5 43.5q0 27 -6 49t-15 40t-20 32.5t-22 27.5q-17 20 -30 39t-13 45q0 7 1 14t4 16q8 30 19 43t28 13q20 0 20 -21q0 -11 -6 -32v1l-13 -40q-2 -7 5 -7z" />
    <glyph glyph-name="T" unicode="T" horiz-adv-x="314" 
d="M263 579l-173 -578q-2 -6 5 -6h124q3 0 5 4l174 580h88q3 0 5 4l40 130q2 6 -5 6h-308q-3 0 -5 -4l-40 -130q-2 -6 5 -6h85z" />
    <glyph glyph-name="U" unicode="U" 
d="M400 153l168 560q2 6 -5 6h-124q-3 0 -5 -4l-162 -538q-11 -35 -21 -45.5t-27 -10.5q-11 0 -16 3t-5 13q0 11 8 38l162 538q2 6 -5 6h-124q-3 0 -5 -4l-168 -560q-8 -26 -12 -47t-4 -38q0 -52 33.5 -70.5t96.5 -18.5q41 0 74 7.5t59 27t46 53t36 84.5z" />
    <glyph glyph-name="V" unicode="V" 
d="M589 719h-127q-4 0 -5 -3l-206 -511l101 508q2 6 -5 6h-129q-5 0 -5 -4l-112 -714q0 -6 5 -6h165q2 0 5 3l318 714q3 7 -5 7z" />
    <glyph glyph-name="W" unicode="W" horiz-adv-x="614" 
d="M213 715l-121 -714q-2 -6 5 -6h156q3 0 5 3l199 501l-102 -498q-2 -6 5 -6h157q3 0 5 3l308 714q3 7 -5 7h-128q-4 0 -5 -3l-197 -508l102 505q2 6 -5 6h-140q-4 0 -5 -3l-203 -511l108 508q2 6 -5 6h-129q-5 0 -5 -4z" />
    <glyph glyph-name="X" unicode="X" horiz-adv-x="409" 
d="M243 373l-244 -370q-4 -8 4 -8h132q2 0 4 2l127 205l3 -202q0 -5 5 -5h131q5 0 5 5q-4 63 -7 112.5t-5.5 89.5t-5 73.5t-4.5 66.5q-2 34 -4.5 70t-5.5 79.5t-6.5 97.5t-7.5 125q0 5 -5 5h-130q-5 0 -5 -5z" />
    <glyph glyph-name="Y" unicode="Y" horiz-adv-x="394" 
d="M339 473l14 241q0 5 -5 5h-130q-5 0 -5 -5l-2 -441l-82 -272q-2 -6 5 -6h124q3 0 5 4l82 271l264 441q4 8 -4 8h-130q-1 0 -4 -3z" />
    <glyph glyph-name="Z" unicode="Z" horiz-adv-x="331" 
d="M19 -5h303q3 0 5 4l39 130q2 6 -5 6h-160l287 447l40 131q2 6 -5 6h-285q-3 0 -5 -4l-40 -130q-2 -6 5 -6h135l-280 -447l-39 -131q-2 -6 5 -6z" />
    <glyph glyph-name="bracketleft" unicode="[" horiz-adv-x="252" 
d="M48 -5h171q3 0 5 4l30 100q2 6 -5 6h-69l152 504h72q3 0 5 4l30 100q2 6 -5 6h-171q-3 0 -5 -4l-215 -714q-2 -6 5 -6z" />
    <glyph glyph-name="backslash" unicode="\" horiz-adv-x="476" 
d="M163 730q-7 0 -5 -6l224 -738q2 -4 5 -4h95q7 0 5 6l-223 738q-2 4 -5 4h-96z" />
    <glyph glyph-name="bracketright" unicode="]" horiz-adv-x="252" 
d="M32 -5h172q3 0 5 4l215 714q2 6 -5 6h-172q-3 0 -5 -4l-30 -100q-2 -6 5 -6h70l-152 -504h-73q-3 0 -5 -4l-30 -100q-2 -6 5 -6z" />
    <glyph glyph-name="asciicircum" unicode="^" horiz-adv-x="510" 
d="M155 316h94q2 0 4 2l173 252l22 -249q0 -5 5 -5h93q5 0 5 6l-39 375q0 4 -5 4h-85q-2 0 -4 -2l-267 -375q-2 -3 -0.5 -5.5t4.5 -2.5z" />
    <glyph glyph-name="underscore" unicode="_" horiz-adv-x="425" 
d="M-46 -157h425q3 0 5 4l23 77q2 6 -5 6h-425q-3 0 -5 -4l-23 -77q-2 -6 5 -6z" />
    <glyph glyph-name="grave" unicode="`" horiz-adv-x="174" 
d="M297 975q-1 1 -4 1h-120q-4 0 -5 -3.5t1 -5.5l154 -154q1 -1 4 -1h121q4 0 5 3.5t-1 5.5z" />
    <glyph glyph-name="a" unicode="a" 
d="M3 -5h130q3 0 5 3l49 123h76l-22 -120q-2 -6 5 -6h128q5 0 5 4l112 714q0 6 -5 6h-165q-2 0 -5 -3l-318 -714q-2 -3 0 -5t5 -2zM291 261h-48l108 275z" />
    <glyph glyph-name="b" unicode="b" 
d="M157 440l-125 -439q-2 -6 5 -6h185q75 0 118 37.5t66 112.5l33 107q5 17 7.5 30.5t2.5 26.5q0 51 -43 66q45 19 69.5 54.5t35.5 75.5l19 62q5 19 8 35t3 31q0 43 -26 64.5t-82 21.5h-181q-3 0 -5 -4l-39 -128q-2 -6 5 -6h82q30 0 44.5 -0.5t18.5 -1t6 -0.5h4
q11 0 15.5 -3.5t4.5 -14.5v-9q0 -4 -2 -10q0 -2 0.5 -4t0.5 -4q0 -11 -10 -23q-6 -22 -11.5 -35t-11.5 -20.5t-13 -10t-16 -2.5l-163 1q-3 0 -5 -4zM257 303h25q14 0 20.5 -3t6.5 -14q0 -9 -3.5 -25t-10.5 -41v1q-9 -29 -16 -46t-14 -26t-15.5 -11.5t-20.5 -2.5h-22z" />
    <glyph glyph-name="c" unicode="c" horiz-adv-x="362" 
d="M193 561l-122 -406q-15 -48 -15 -82q0 -48 30 -70t95 -22h12q3 0 6 0.5t6 0.5t5 4l37 135q1 4 -1.5 5.5t-5.5 -0.5q-10 -5 -20 -5q-18 0 -18 16q0 8 5 28l115 382q8 27 18.5 36.5t24.5 9.5q8 0 14 -4.5t6 -12.5q0 -1 -2 -9l-31 -107q-2 -6 5 -6h124q3 0 5 4l30 101
q14 48 14 80q0 49 -30.5 71.5t-95.5 22.5q-86 0 -135.5 -40.5t-75.5 -131.5z" />
    <glyph glyph-name="d" unicode="d" 
d="M215 580l143 -1q27 0 27 -19q0 -7 -1 -11q-2 -17 -8.5 -40.5t-20.5 -65.5q-12 -39 -31 -98.5t-45 -151.5v1q-10 -29 -18.5 -42t-20.5 -16q-4 0 -4 -3l-51 -131q-2 -7 5 -7q42 0 75 7.5t59 27t46 53t36 84.5l113 378q8 26 12 47t4 38q0 52 -33.5 70.5t-96.5 18.5h-153
q-3 0 -5 -4l-37 -129q-2 -6 5 -6z" />
    <glyph glyph-name="e" unicode="e" horiz-adv-x="314" 
d="M247 715l-215 -714q-2 -6 5 -6h255q3 0 5 4l39 130q2 6 -5 6h-124l50 168h121q3 0 5 4l40 130q2 6 -5 6h-118l40 136h127q3 0 5 4l40 130q2 6 -5 6h-255q-3 0 -5 -4z" />
    <glyph glyph-name="f" unicode="f" horiz-adv-x="314" 
d="M247 715l-215 -714q-2 -6 5 -6h124q3 0 5 4l91 304h121q3 0 5 4l40 130q2 6 -5 6h-118l40 136h127q3 0 5 4l40 130q2 6 -5 6h-255q-3 0 -5 -4z" />
    <glyph glyph-name="g" unicode="g" horiz-adv-x="383" 
d="M361 28l116 385q2 6 -5 6h-119q-4 0 -5 -3l-82 -259q-7 -20 -16 -28t-26 -8q-23 0 -23 15q0 2 1 7t3 11l122 404q8 35 42 35q17 0 20 -9q2 -4 5 -4t5 4l48 140q2 7 -5 7q-8 1 -17.5 1.5t-20.5 0.5q-86 0 -135.5 -40.5t-75.5 -131.5l-131 -433q-6 -21 -6 -36
q0 -26 11.5 -44t30.5 -29.5t43 -16.5t48 -5h18q18 0 37.5 0.5t39 3.5t37 9.5t30.5 18.5q0 -3 4 -4t6 3z" />
    <glyph glyph-name="h" unicode="h" horiz-adv-x="394" 
d="M247 715l-215 -714q-2 -6 5 -6h124q3 0 5 4l91 304h61l-90 -302q-2 -6 5 -6h124q3 0 5 4l215 714q2 6 -5 6h-124q-3 0 -5 -4l-82 -272h-61l81 270q2 6 -5 6h-124q-3 0 -5 -4z" />
    <glyph glyph-name="i" unicode="i" horiz-adv-x="205" 
d="M41 -5h124q3 0 5 4l215 714q2 6 -5 6h-124q-3 0 -5 -4l-215 -714q-2 -6 5 -6z" />
    <glyph glyph-name="j" unicode="j" horiz-adv-x="346" 
d="M193 230h-121q-3 0 -5 -4l-21 -71q-8 -26 -12 -47.5t-4 -38.5q0 -51 32 -69.5t95 -18.5q41 0 73 8t57 27.5t44.5 53t34.5 83.5l168 560q2 6 -5 6h-124q-3 0 -5 -4l-167 -554q-7 -22 -16 -31t-25 -9q-19 0 -19 14q0 7 5 24l20 65q2 6 -5 6z" />
    <glyph glyph-name="k" unicode="k" horiz-adv-x="394" 
d="M272 354h128q1 0 4 3l204 355q3 7 -4 7h-131q-2 0 -4 -2l-178 -303l90 299q2 6 -5 6h-124q-3 0 -5 -4l-215 -714q-2 -6 5 -6h124q3 0 5 4z" />
    <glyph glyph-name="l" unicode="l" horiz-adv-x="299" 
d="M37 -5h255q3 0 5 4l39 130q2 6 -5 6h-124l174 578q2 6 -5 6h-124q-3 0 -5 -4l-215 -714q-2 -6 5 -6z" />
    <glyph glyph-name="m" unicode="m" horiz-adv-x="582" 
d="M350 195l101 518q2 6 -5 6h-197q-3 0 -5 -4l-215 -714q-2 -6 5 -6h117q3 0 5 4l164 543l-96 -541q-2 -6 5 -6h124q3 0 5 3l229 538l-161 -535q-2 -6 5 -6h117q3 0 5 4l215 714q2 6 -5 6h-197q-4 0 -5 -3z" />
    <glyph glyph-name="n" unicode="n" horiz-adv-x="456" 
d="M372 251l43 463q0 5 -5 5h-158q-3 0 -5 -4l-215 -714q-2 -6 5 -6h118q3 0 5 4l137 456l-39 -455q0 -5 5 -5h156q3 0 5 4l215 714q2 6 -5 6h-117q-3 0 -5 -4z" />
    <glyph glyph-name="o" unicode="o" 
d="M193 561l-122 -406q-8 -26 -12 -47t-4 -38q0 -52 33.5 -70.5t96.5 -18.5q41 0 74 7.5t59 27t46 53t36 84.5l122 406q15 51 15 85q0 52 -33 70.5t-96 18.5q-42 0 -74.5 -7.5t-58.5 -27t-46 -53t-36 -84.5zM205 154l122 404q8 35 42 35q22 0 22 -16q0 -7 -3 -17l-122 -404
v1q-7 -20 -16 -28t-26 -8q-23 0 -23 15q0 2 1 7t3 11z" />
    <glyph glyph-name="p" unicode="p" horiz-adv-x="362" 
d="M238 247l44 144l2 2l56 186h28q10 0 15 -2t5 -12q0 -11 -5 -32t-16 -56q-8 -28 -15 -45.5t-13.5 -27.5t-14 -13.5t-16.5 -3.5h-4q-4 0 -5 -3l-44 -130q-2 -7 5 -7h6q47 0 80.5 8t58 27t42 51t32.5 81l41 136q16 51 16 87q0 47 -31 64.5t-100 17.5h-153q-3 0 -5 -4
l-215 -714q-2 -6 5 -6h124q3 0 5 4l71 237q0 4 -1 5q0 2 2 6z" />
    <glyph glyph-name="q" unicode="q" 
d="M205 154l122 404q7 33 38 35q3 0 5 3l42 130q2 7 -5 7q-42 0 -75 -8t-58.5 -27.5t-45 -52.5t-35.5 -84l-122 -406q-8 -26 -12 -47t-4 -38q0 -38 19 -57.5t57 -25.5l-16 -56q-12 -39 -12 -62q0 -32 19 -43t54 -11h84q3 0 5 4l34 112q2 6 -5 6h-47q-17 0 -17 18q0 3 2 13
v-1l6 19q29 4 53.5 14.5t44 30t35.5 49.5t29 73l122 406q15 51 15 84q0 51 -30.5 69.5t-87.5 20.5q-3 0 -5 -4l-37 -128q-1 -4 4 -6l3 -1.5t1 -5.5q0 -10 -5.5 -35t-19 -74t-36.5 -127.5t-58 -195.5v1q-7 -20 -16 -28t-26 -8q-23 0 -23 15q0 2 1 7t3 11z" />
    <glyph glyph-name="r" unicode="r" 
d="M318 579h27q21 0 21 -18q0 -15 -9 -49q-12 -44 -22.5 -56.5t-27.5 -12.5q-5 0 -5 -4l-28 -130q-2 -6 4 -6q21 -2 21 -19q0 -7 -1 -11l-62 -243l1 1q-2 -5 -2.5 -8t-0.5 -7v-10q0 -4 2 -8q1 -3 5 -3h124q7 0 5 7q-2 6 -2 9q0 8 3 22.5t11 43.5l40 155q12 45 12 74
q0 53 -38 68q19 6 34 18t25.5 27t17.5 31.5t11 31.5l22 85q5 18 7.5 33.5t2.5 29.5q0 51 -34 70t-100 19h-159q-3 0 -5 -4l-186 -714q-2 -6 5 -6h124q3 0 5 4z" />
    <glyph glyph-name="s" unicode="s" horiz-adv-x="346" 
d="M359 494h121q3 0 5 4l17 56q15 49 15 83q0 52 -31.5 74t-93.5 22q-45 0 -79.5 -10.5t-60.5 -33t-45 -58t-34 -84.5q-16 -54 -16 -95q0 -26 5.5 -46.5t14 -38t19.5 -32t22 -27.5q17 -21 31 -42t14 -51q0 -17 -6 -39q-9 -29 -20 -42t-29 -13q-6 0 -10 1q-4 2 -6 -3
l-46 -131q-2 -7 5 -7h18q46 0 80.5 9.5t60.5 33t45.5 61.5t36.5 95q8 27 11.5 50.5t3.5 43.5q0 27 -6 49t-15 40t-20 32.5t-22 27.5q-17 20 -30 39t-13 45q0 7 1 14t4 16q8 30 19 43t28 13q20 0 20 -21q0 -11 -6 -32v1l-13 -40q-2 -7 5 -7z" />
    <glyph glyph-name="t" unicode="t" horiz-adv-x="314" 
d="M263 579l-173 -578q-2 -6 5 -6h124q3 0 5 4l174 580h88q3 0 5 4l40 130q2 6 -5 6h-308q-3 0 -5 -4l-40 -130q-2 -6 5 -6h85z" />
    <glyph glyph-name="u" unicode="u" 
d="M400 153l168 560q2 6 -5 6h-124q-3 0 -5 -4l-162 -538q-11 -35 -21 -45.5t-27 -10.5q-11 0 -16 3t-5 13q0 11 8 38l162 538q2 6 -5 6h-124q-3 0 -5 -4l-168 -560q-8 -26 -12 -47t-4 -38q0 -52 33.5 -70.5t96.5 -18.5q41 0 74 7.5t59 27t46 53t36 84.5z" />
    <glyph glyph-name="v" unicode="v" 
d="M589 719h-127q-4 0 -5 -3l-206 -511l101 508q2 6 -5 6h-129q-5 0 -5 -4l-112 -714q0 -6 5 -6h165q2 0 5 3l318 714q3 7 -5 7z" />
    <glyph glyph-name="w" unicode="w" horiz-adv-x="614" 
d="M213 715l-121 -714q-2 -6 5 -6h156q3 0 5 3l199 501l-102 -498q-2 -6 5 -6h157q3 0 5 3l308 714q3 7 -5 7h-128q-4 0 -5 -3l-197 -508l102 505q2 6 -5 6h-140q-4 0 -5 -3l-203 -511l108 508q2 6 -5 6h-129q-5 0 -5 -4z" />
    <glyph glyph-name="x" unicode="x" horiz-adv-x="409" 
d="M243 373l-244 -370q-4 -8 4 -8h132q2 0 4 2l127 205l3 -202q0 -5 5 -5h131q5 0 5 5l-46 714q0 5 -5 5h-130q-5 0 -5 -5z" />
    <glyph glyph-name="y" unicode="y" horiz-adv-x="394" 
d="M339 473l14 241q0 5 -5 5h-130q-5 0 -5 -5l-2 -441l-82 -272q-2 -6 5 -6h124q3 0 5 4l82 271l264 441q4 8 -4 8h-130q-1 0 -4 -3z" />
    <glyph glyph-name="z" unicode="z" horiz-adv-x="331" 
d="M19 -5h303q3 0 5 4l39 130q2 6 -5 6h-160l287 447l40 131q2 6 -5 6h-285q-3 0 -5 -4l-40 -130q-2 -6 5 -6h135l-280 -447l-39 -131q-2 -6 5 -6z" />
    <glyph glyph-name="braceleft" unicode="{" horiz-adv-x="237" 
d="M142 409l-29 -100q-2 -6 5 -6q9 -1 16 -7t7 -19q0 -11 -4 -23l-43 -149v1q-9 -29 -9 -51q0 -60 62 -60h59q3 0 5 4l29 100q2 6 -5 6h-14q-21 0 -21 13q0 7 5 25l40 136q4 13 4 28q0 22 -11 34t-23 17q20 7 42.5 25t33.5 56l38 130q7 24 15.5 32t25.5 8h15q3 0 5 4l29 100
q2 6 -5 6h-59q-42 0 -70 -27.5t-44 -80.5l-43 -149q-8 -26 -22 -37.5t-29 -11.5q-3 0 -5 -4z" />
    <glyph glyph-name="bar" unicode="|" horiz-adv-x="178" 
d="M312 856l-364 -999q-2 -7 5 -7h90q3 0 5 3l364 999q2 7 -5 7h-90q-4 0 -5 -3z" />
    <glyph glyph-name="braceright" unicode="}" horiz-adv-x="237" 
d="M325 306l36 100q2 7 -5 7q-9 0 -15 5t-6 16q0 8 6 25l54 149q12 33 12 59q0 52 -57 52h-60q-4 0 -5 -3l-37 -100q-2 -7 5 -7h15q19 0 19 -11q0 -9 -7 -26l-47 -130q-4 -10 -5 -18t-1 -16q0 -20 9 -31.5t20 -16.5q-20 -5 -43.5 -23t-37.5 -55l-50 -136q-8 -25 -17.5 -33
t-26.5 -8h-15q-4 0 -5 -3l-36 -100q-2 -7 5 -7h60q42 0 71.5 27.5t49.5 79.5l54 149q10 28 25.5 39.5t29.5 12.5q3 0 5 3z" />
    <glyph glyph-name="asciitilde" unicode="~" horiz-adv-x="480" 
d="M523 256l4 92q0 4 -3.5 5t-5.5 -2q-29 -33 -50.5 -51.5t-41.5 -18.5q-11 0 -22.5 7t-29.5 19l-13 9q-23 16 -42 24.5t-39 8.5q-38 0 -72 -24.5t-63 -64.5l-4 -92q0 -4 3.5 -5t5.5 2q29 33 50 51.5t41 18.5q11 0 23 -6t30 -20l13 -9q23 -16 42 -24.5t39 -8.5
q38 0 71.5 24.5t63.5 64.5z" />
    <glyph glyph-name="exclamdown" unicode="&#xa1;" horiz-adv-x="227" 
d="M155 331l-169 -500q-2 -7 5 -7h125q3 0 5 4l133 500q2 6 -5 6h-89q-4 0 -5 -3zM174 408h111q3 0 5 4l39 130q2 6 -5 6h-111q-3 0 -5 -4l-39 -130q-2 -6 5 -6z" />
    <glyph glyph-name="cent" unicode="&#xa2;" horiz-adv-x="362" 
d="M240 127q-3 0 -4 -1l-1 -1h2q-10 -4 -17 -4q-18 0 -18 16q0 8 5 28l115 382q8 27 18.5 36.5t24.5 9.5q8 0 14 -4.5t6 -12.5q0 -1 -2 -9l-31 -107q-2 -6 5 -6h124q3 0 5 4l30 101q13 45 13 79q0 42 -21.5 64.5t-69.5 27.5l19 63q2 6 -5 6h-52q-3 0 -5 -4l-19 -64
q-75 -6 -117.5 -46.5t-65.5 -123.5l-122 -406q-15 -48 -15 -82q0 -48 30 -70t95 -22h10l-26 -77q-2 -7 5 -7h52q3 0 5 3l75 224q1 3 -1 5.5t-5 1.5q-8 -2 -20 -3t-23 -1h-13z" />
    <glyph glyph-name="sterling" unicode="&#xa3;" horiz-adv-x="341" 
d="M346 272q3 0 5 4l22 74q2 6 -5 6h-75v104q0 23 1 37.5t5 26.5v-1q17 51 46 51q20 0 20 -31q0 -12 -4 -25l-9 -31q-2 -6 5 -6h104q3 0 5 4l10 37q16 52 16 93q0 96 -104 96q-80 0 -133 -43t-78 -127q-8 -29 -12.5 -67.5t-4.5 -73.5v-24t2 -20h-47q-3 0 -5 -4l-21 -74
q-2 -6 5 -6h252zM87 -5q3 0 5 3q11 26 34 26q9 0 38 -15q23 -12 39.5 -17.5t33.5 -5.5q56 0 91.5 43.5t57.5 117.5q2 6 -5 6h-73q-4 0 -5 -3l-2 -6q-4 -10 -8 -16.5t-9 -6.5q-7 0 -33 13h1q-6 4 -17.5 8.5t-25 8t-27.5 5.5t-25 2q-15 0 -22 -4l1 1q-47 -5 -77 -45.5
t-50 -108.5q-2 -6 5 -6h73z" />
    <glyph glyph-name="yen" unicode="&#xa5;" horiz-adv-x="341" 
d="M461 372q3 0 5 3l21 56q2 7 -5 7h-51l156 255q4 8 -4 8h-110q-1 0 -4 -3l-126 -225l36 222q2 6 -5 6h-110q-5 0 -5 -4l-28 -259h-55q-4 0 -5 -3l-21 -56q-2 -7 5 -7h306zM129 309q-4 0 -5 -3l-21 -56q-2 -7 5 -7h87l-87 -241q-2 -7 5 -7h113q3 0 5 3l89 245h94q3 0 5 3
l21 56q2 7 -5 7h-306z" />
    <glyph glyph-name="brokenbar" unicode="&#xa6;" horiz-adv-x="178" 
d="M236 760l-103 -350q-2 -6 5 -6h90q3 0 5 4l102 350q2 6 -5 6h-89q-3 0 -5 -4zM90 260l-101 -349q-2 -6 5 -6h89q3 0 5 4l102 349q2 6 -5 6h-90q-3 0 -5 -4z" />
    <glyph glyph-name="section" unicode="&#xa7;" horiz-adv-x="385" 
d="M517 519q3 0 5 3l14 38q16 44 16 78q0 77 -100 77q-70 0 -119.5 -41t-81.5 -128q-15 -41 -15 -76v-6q1 -28 10 -38q-39 -12 -68.5 -47.5t-54.5 -106.5q-15 -42 -15 -76q0 -27 10 -49t24 -35t37 -31q21 -16 32 -27.5t11 -25.5q0 -9 -4 -20q-18 -51 -45 -51l-23 -2
q-5 0 -5 -4l-26 -109q-2 -6 5 -6h8q75 0 125 41.5t82 127.5q9 26 12.5 45t3.5 34q0 16 -4 26.5t-9 15.5q19 5 34.5 15t30 27.5t27 43t25.5 61.5q17 47 17 84q0 28 -10 50q-10 23 -25 37t-37 29q-21 14 -31.5 24.5t-10.5 24.5q0 8 4 19q20 53 46 53q15 0 15 -17q0 -9 -4 -20
l-10 -31q-2 -7 5 -7h99zM268 213q-31 0 -31 23q0 13 9 37q13 35 29 50t42 15q31 0 31 -22q0 -11 -10 -39q-12 -34 -28 -49t-42 -15z" />
    <glyph glyph-name="dieresis" unicode="&#xa8;" horiz-adv-x="385" 
d="M274 974h-110q-3 0 -5 -4l-39 -130q-2 -6 5 -6h110q3 0 5 4l39 130q2 6 -5 6zM472 973h-110q-3 0 -5 -4l-39 -130q-2 -6 5 -6h110q3 0 5 4l39 130q2 6 -5 6z" />
    <glyph glyph-name="copyright" unicode="&#xa9;" horiz-adv-x="640" 
d="M126 378h89q3 0 5 3q20 57 51.5 104t70 80.5t81 52.5t84.5 19q66 0 105.5 -47.5t39.5 -127.5q0 -17 -2 -34.5t-6 -37.5q-2 -6 5 -6h89q5 0 5 4q13 53 13 104q0 57 -16.5 102t-46.5 75.5t-71 47t-90 16.5q-59 0 -120.5 -24t-117 -69t-101 -109.5t-72.5 -145.5zM341 77
q-68 0 -106.5 47t-38.5 126q0 17 1.5 36t6.5 39q2 6 -5 6h-90q-5 0 -5 -4q-13 -53 -13 -104q0 -57 16.5 -102t46.5 -76t71.5 -47t90.5 -16h3q57 0 117.5 23.5t115.5 68t100 107.5t72 141q2 7 -5 7h-89q-4 0 -5 -3q-21 -55 -53 -101t-70 -79t-79.5 -51t-81.5 -18zM355 481
l-76 -251v1q-9 -29 -9 -51q0 -60 80 -60h6q2 0 4 0.5t4 0.5q3 0 5 4l23 83q1 4 -2 5.5t-6 -0.5t-11 -2q-9 0 -9 8q0 5 3 16l72 237q5 15 10.5 20.5t13.5 5.5q11 0 11 -10q0 -2 -0.5 -2.5t-0.5 -1.5l-20 -65q-2 -6 5 -6h76q3 0 5 4l19 62v-1q5 14 6.5 27t1.5 24
q0 31 -18.5 45.5t-60.5 14.5q-55 0 -85 -25.5t-47 -82.5z" />
    <glyph glyph-name="guillemotleft" unicode="&#xab;" horiz-adv-x="326" 
d="M238 257l31 -125q2 -4 5 -4h84q7 0 5 6l-31 122l121 123q2 2 1 5.5t-5 3.5h-84q-2 0 -4 -2l-122 -125q-1 -1 -1 -4zM105 257l32 -125q2 -4 5 -4h83q7 0 5 6l-31 122l121 123q2 2 1 5.5t-5 3.5h-83q-3 0 -4 -1l-123 -125q-1 -1 -1 -5z" />
    <glyph glyph-name="logicalnot" unicode="&#xac;" horiz-adv-x="763" 
d="M214 -42q4 0 4 2l30 77h46l-13 -75q-2 -4 2 -4l163 1q45 0 72.5 23.5t40.5 70.5l21 65q6 22 6 36q0 30 -27 40q28 11 43.5 33t22.5 47l11 38q6 22 6 41q0 30 -17 41l11 41q1 3 -2 3h-77l30 104h75q3 0 3 4l23 78q2 4 -2 4h-72l24 84h79q2 0 2 2l26 81q0 4 -3 4h-158
q-4 0 -4 -3l-52 -168h-37l51 167q1 1 0 2.5t-4 1.5h-265q-1 0 -3 -2l-26 -83q-3 -3 5 -3h52l-91 -306h-52q-2 0 -2 -2l-133 -439q-1 -5 2 -5zM331 404q-2 0 -3 -0.5t-2 -0.5l-158 -357h-38l92 306h50q1 0 3 2l109 357h49l-92 -307h-10zM435 400q0 4 -3 4h-7l40 138h38
l-66 -217q0 -3 3 -3q33 0 51 -0.5t27 -0.5t11.5 -0.5t4.5 -0.5h2q12 0 12 -13v-4t-1 -7v-4q0 -7 -5 -14q-8 -28 -14 -34.5t-17 -6.5h-103zM230 325l4 2l39 -1q6 0 5 -3l-79 -159q0 -3 -2 -3l-9 3q-4 0 -5 1.5t0 2.5zM483 150q9 0 13 -1.5t4 -8.5q0 -5 -2.5 -15.5t-6.5 -24.5
q-12 -35 -18.5 -44.5t-21.5 -9.5h-14l31 104h15zM311 122h-29l66 170z" />
    <glyph glyph-name="registered" unicode="&#xae;" horiz-adv-x="640" 
d="M126 378h89q3 0 5 3q20 57 51.5 104t70 80.5t81 52.5t84.5 19q66 0 105.5 -47.5t39.5 -127.5q0 -17 -2 -34.5t-6 -37.5q-2 -6 5 -6h89q5 0 5 4q13 53 13 104q0 57 -16.5 102t-46.5 75.5t-71 47t-90 16.5q-59 0 -120.5 -24t-117 -69t-101 -109.5t-72.5 -145.5zM341 77
q-68 0 -106.5 47t-38.5 126q0 17 1.5 36t6.5 39q2 6 -5 6h-90q-5 0 -5 -4q-13 -53 -13 -104q0 -57 16.5 -102t46.5 -76t71.5 -47t90.5 -16h3q57 0 117.5 23.5t115.5 68t100 107.5t72 141q2 7 -5 7h-89q-4 0 -5 -3q-21 -55 -53 -101t-70 -79t-79.5 -51t-81.5 -18zM351 153h-4
l90 343q2 4 5 4h19q10 0 15 -4t5 -15q0 -6 -1.5 -13t-3.5 -18q-8 -28 -15.5 -37t-18.5 -10l1 4l-5 -4h4l-15 -68q15 -5 15 -19q0 -4 -2 -8l1 1l-36 -143q-3 -5 -3 -9q0 -2 1 -4h-4l5 -3q-1 1 -1 3h63q0 -4 3 -7l4 7h-7v2q0 6 2 15t6 25l24 93q4 13 5.5 23.5t1.5 18.5
q0 30 -25 35q-4 0 -4 5v1q0 5 4 5q25 5 37.5 23t17.5 37l14 50q5 23 5 35q0 26 -18 36t-53 10h-91l1 4l-5 -4h4l-108 -414h63l-1 -4zM278 153l5 -6l1 6h-6zM421 336l5 -6l1 5q-2 0 -3 0.5t-3 0.5z" />
    <glyph glyph-name="macron" unicode="&#xaf;" horiz-adv-x="268" 
d="M79 877l261 -1q2 0 5 3l41 89q3 7 -5 7l-261 1q-2 0 -5 -3l-41 -89q-2 -3 0 -5t5 -2z" />
    <glyph glyph-name="degree" unicode="&#xb0;" horiz-adv-x="294" 
d="M391 473l44 144q6 21 6 39q0 29 -15.5 45t-40.5 16h-51q-31 0 -61 -25t-45 -73l-44 -144q-6 -21 -6 -38q0 -30 15.5 -46t40.5 -16h22q3 0 5 3l25 75q2 7 -5 7q-12 0 -12 13q0 4 1 7l38 129v-1q3 9 11.5 16.5t18.5 7.5q7 0 10 -3.5t3 -8.5q0 -3 -2 -9l-38 -128
q-3 -13 -19 -21q-3 0 -3 -3l-26 -77q-2 -7 5 -7h17q31 0 61.5 25t44.5 73z" />
    <glyph glyph-name="plusminus" unicode="&#xb1;" horiz-adv-x="510" 
d="M130 501l-35 -112q-2 -6 5 -6h164l-58 -196q-2 -6 5 -6h96q3 0 5 4l59 198h167q3 0 5 4l35 112q2 6 -5 6h-168q-1 0 -1.5 0.5t-1.5 0.5h-96q-1 0 -1.5 -0.5t-1.5 -0.5h-168q-3 0 -5 -4zM453 27l34 112q2 6 -5 6h-438q-3 0 -5 -4l-34 -112q-2 -6 5 -6h438q3 0 5 4z
M414 517l54 184q2 6 -5 6h-96q-3 0 -5 -4l-54 -184q-2 -6 5 -6h96q3 0 5 4z" />
    <glyph glyph-name="acute" unicode="&#xb4;" horiz-adv-x="174" 
d="M325 975l-157 -154q-2 -2 -1 -5.5t5 -3.5l122 1l158 154q2 2 1.5 5.5t-4.5 3.5h-120q-3 0 -4 -1z" />
    <glyph glyph-name="mu" unicode="&#xb5;" horiz-adv-x="341" 
d="M499 521h-113q-4 0 -5 -3l-136 -374q-8 -20 -19 -30.5t-22 -10.5q-10 0 -10 11q0 9 6 26l136 374q2 7 -5 7h-113q-4 0 -5 -3l-253 -695q-2 -7 5 -7h113q3 0 5 3l61 170q18 6 35 19t31 30l-13 -36q-2 -7 5 -7h109q3 0 5 3l188 516q2 7 -5 7z" />
    <glyph glyph-name="paragraph" unicode="&#xb6;" horiz-adv-x="496" 
d="M156 -178q-2 -6 5 -6h89q3 0 5 4l161 534h45l-116 -389q-2 -6 5 -6h88q3 0 5 4l150 516q2 6 -5 6h-399q-5 0 -5 -5v-7q0 -54 32.5 -84t94.5 -32zM626 591q2 6 -5 6h-400q-1 0 -4 -3q-8 -14 -13 -29t-10 -29v2q-1 -2 -1 -6q0 -1 -0.5 -1.5t-0.5 -1.5q0 -5 5 -5h405
q3 0 5 4zM262 645h376q3 0 5 4l19 64q2 6 -5 6h-219q-116 0 -180 -66z" />
    <glyph glyph-name="periodcentered" unicode="&#xb7;" horiz-adv-x="181" 
d="M284 439h-110q-3 0 -5 -4l-39 -130q-2 -6 5 -6h110q3 0 5 4l39 130q2 6 -5 6z" />
    <glyph glyph-name="periodcentered" unicode="&#x2219;" horiz-adv-x="181" 
d="M284 439h-110q-3 0 -5 -4l-39 -130q-2 -6 5 -6h110q3 0 5 4l39 130q2 6 -5 6z" />
    <glyph glyph-name="cedilla" unicode="&#xb8;" horiz-adv-x="178" 
d="M73 3l-76 -87q-3 -3 -1 -5l8 -17q2 -5 6 -3q4 1 5 1q15 4 26 4q21 0 21 -15q0 -7 -4 -16q-7 -17 -22 -26t-29 -9q-22 0 -45 13q-5 3 -7 -1l-27 -39q-2 -4 1 -7q24 -20 73 -20q44 0 80 23.5t51 64.5q4 10 5.5 20t1.5 18q0 23 -12 35.5t-35 12.5h-17l45 47q2 2 1 5t-5 3
h-40q-2 0 -4 -2z" />
    <glyph glyph-name="guillemotright" unicode="&#xbb;" horiz-adv-x="326" 
d="M371 388h-83q-7 0 -5 -6l31 -122l-121 -123q-2 -2 -1 -5.5t5 -3.5h83q3 0 4 1l124 125q1 1 1 5l-33 125q-2 4 -5 4zM238 388h-83q-7 0 -5 -6l32 -122l-122 -123q-2 -2 -1 -5.5t5 -3.5h83q3 0 4 1l124 125q1 1 1 5l-33 125q-2 4 -5 4z" />
    <glyph glyph-name="questiondown" unicode="&#xbf;" horiz-adv-x="334" 
d="M306 290h-111q-3 0 -5 -4l-17 -56q-12 -40 -32.5 -62t-44.5 -43q-2 -2 -4.5 -4t-4.5 -4h1q-13 -12 -26.5 -27t-27 -34.5t-26 -45.5t-23.5 -62q-13 -43 -13 -79q0 -101 113 -101q37 0 68 9t55.5 29t44 53.5t33.5 81.5v-1l19 60q2 7 -5 7h-111q-3 0 -5 -4l-13 -45v1
q-12 -39 -24 -54t-24 -15q-13 0 -13 19q0 16 10 46q11 38 32 64t46 49q26 25 49 51t35 64l29 101q2 6 -5 6zM221 366h111q3 0 5 4l39 130q2 6 -5 6h-111q-3 0 -5 -4l-39 -130q-2 -6 5 -6z" />
    <glyph glyph-name="Agrave" unicode="&#xc0;" 
d="M3 -5h130q3 0 5 3l49 123h76l-22 -120q-2 -6 5 -6h128q5 0 5 4l112 714q0 6 -5 6h-165q-2 0 -5 -3l-318 -714q-2 -3 0 -5t5 -2zM403 975q-1 1 -4 1h-120q-4 0 -5 -3.5t1 -5.5l154 -154q1 -1 4 -1h121q4 0 5 3.5t-1 5.5zM291 261h-48l108 275z" />
    <glyph glyph-name="Aacute" unicode="&#xc1;" 
d="M3 -5h130q3 0 5 3l49 123h76l-22 -120q-2 -6 5 -6h128q5 0 5 4l112 714q0 6 -5 6h-165q-2 0 -5 -3l-318 -714q-2 -3 0 -5t5 -2zM437 975l-157 -154q-2 -2 -1 -5.5t5 -3.5l122 1l158 154q2 2 1.5 5.5t-4.5 3.5h-120q-3 0 -4 -1zM291 261h-48l108 275z" />
    <glyph glyph-name="Acircumflex" unicode="&#xc2;" 
d="M3 -5h130q3 0 5 3l49 123h76l-22 -120q-2 -6 5 -6h128q5 0 5 4l112 714q0 6 -5 6h-165q-2 0 -5 -3l-318 -714q-2 -3 0 -5t5 -2zM250 764h94q2 0 4 2l103 158l20 -146q0 -4 5 -4h93q5 0 5 6l-37 270q0 4 -5 4h-85q-2 0 -4 -2l-197 -280q-2 -3 -0.5 -5.5t4.5 -2.5zM291 261
h-48l108 275z" />
    <glyph glyph-name="Atilde" unicode="&#xc3;" 
d="M3 -5h130q3 0 5 3l49 123h76l-22 -120q-2 -6 5 -6h128q5 0 5 4l112 714q0 6 -5 6h-165q-2 0 -5 -3l-318 -714q-2 -3 0 -5t5 -2zM558 858l3 70q0 4 -3.5 5t-5.5 -2q-22 -25 -38 -38.5t-30 -13.5q-8 0 -16.5 5t-21.5 14l-10 7q-17 12 -32 18.5t-30 6.5q-29 0 -54.5 -18.5
t-47.5 -49.5l-3 -69q0 -4 3.5 -5t5.5 2q22 25 37.5 38.5t29.5 13.5q13 0 39 -19l10 -7q17 -12 32 -18.5t29 -6.5q29 0 54.5 18.5t48.5 48.5zM291 261h-48l108 275z" />
    <glyph glyph-name="Adieresis" unicode="&#xc4;" 
d="M3 -5h130q3 0 5 3l49 123h76l-22 -120q-2 -6 5 -6h128q5 0 5 4l112 714q0 6 -5 6h-165q-2 0 -5 -3l-318 -714q-2 -3 0 -5t5 -2zM607 972h-110q-3 0 -5 -4l-39 -130q-2 -6 5 -6h110q3 0 5 4l39 130q2 6 -5 6zM409 973h-110q-3 0 -5 -4l-39 -130q-2 -6 5 -6h110q3 0 5 4
l39 130q2 6 -5 6zM291 261h-48l108 275z" />
    <glyph glyph-name="Aring" unicode="&#xc5;" 
d="M539 808l44 144q6 21 6 39q0 29 -15.5 45t-40.5 16h-51q-31 0 -61 -25t-45 -73l-44 -144q-6 -21 -6 -38q0 -37 24 -53h-29q-2 0 -5 -3l-318 -714q-2 -3 0 -5t5 -2h130q3 0 5 3l49 123h76l-22 -120q-2 -6 5 -6h128q5 0 5 4l112 714q0 6 -5 6h-16q22 11 40.5 33t28.5 56z
M411 719l23 69q2 7 -5 7q-12 0 -12 13q0 4 1 7l38 129v-1q3 9 11.5 16.5t18.5 7.5q7 0 10 -3.5t3 -8.5q0 -3 -2 -9l-38 -128q-3 -13 -19 -21q-3 0 -3 -3zM291 261h-48l108 275z" />
    <glyph glyph-name="AE" unicode="&#xc6;" horiz-adv-x="504" 
d="M239 -5h238q3 0 5 4l37 130q2 6 -5 6h-117l49 168h113q3 0 5 4l36 130q2 6 -5 6h-111l39 136h119q3 0 5 4l37 130q2 6 -5 6h-316q-1 0 -4 -3l-361 -714q-4 -7 4 -7h121q2 0 5 3l58 122h81l-33 -119q-2 -6 5 -6zM305 260h-55l140 297z" />
    <glyph glyph-name="Ccedilla" unicode="&#xc7;" horiz-adv-x="362" 
d="M193 561l-122 -406q-15 -48 -15 -82q0 -72 74 -87l-46 -53q-3 -3 -1 -5l8 -17q2 -5 6 -3q4 1 5 1q15 4 26 4q21 0 21 -15q0 -7 -4 -16q-7 -17 -22 -26t-29 -9q-22 0 -45 13q-5 3 -7 -1l-27 -39q-2 -4 1 -7q24 -20 73 -20q44 0 80 23.5t51 64.5q4 10 5.5 20t1.5 18
q0 23 -12 35.5t-35 12.5h-17l14 14h16q3 0 6 0.5t6 0.5t5 4l37 135q1 4 -1.5 5.5t-5.5 -0.5q-10 -5 -20 -5q-18 0 -18 16q0 8 5 28l115 382q8 27 18.5 36.5t24.5 9.5q8 0 14 -4.5t6 -12.5q0 -1 -2 -9l-31 -107q-2 -6 5 -6h124q3 0 5 4l30 101q14 48 14 80q0 49 -30.5 71.5
t-95.5 22.5q-86 0 -135.5 -40.5t-75.5 -131.5z" />
    <glyph glyph-name="Egrave" unicode="&#xc8;" horiz-adv-x="314" 
d="M257 713l-5 -4h4l-212 -704h244l-1 -4l5 4h-4l36 120h-124q-7 0 -5 6l53 178q2 4 5 4h121l-1 -4l5 4h-4l37 120h-118q-7 0 -5 6l43 146q2 4 5 4h127l37 120h-244zM390 975q-1 1 -4 1h-120q-4 0 -5 -3.5t1 -5.5l154 -154q1 -1 4 -1h121q4 0 5 3.5t-1 5.5zM507 709l-5 6
l-2 -6h7zM42 -1l2 6h-7zM418 433l-5 6l-2 -6h7zM331 125l-5 6l-2 -6h7zM467 589h-4l-1 -4z" />
    <glyph glyph-name="Eacute" unicode="&#xc9;" horiz-adv-x="314" 
d="M247 715l-215 -714q-2 -6 5 -6h255q3 0 5 4l39 130q2 6 -5 6h-124l50 168h121q3 0 5 4l40 130q2 6 -5 6h-118l40 136h127q3 0 5 4l40 130q2 6 -5 6h-255q-3 0 -5 -4zM436 975l-157 -154q-2 -2 -1 -5.5t5 -3.5l122 1l158 154q2 2 1.5 5.5t-4.5 3.5h-120q-3 0 -4 -1z" />
    <glyph glyph-name="Ecircumflex" unicode="&#xca;" horiz-adv-x="314" 
d="M247 715l-215 -714q-2 -6 5 -6h255q3 0 5 4l39 130q2 6 -5 6h-124l50 168h121q3 0 5 4l40 130q2 6 -5 6h-118l40 136h127q3 0 5 4l40 130q2 6 -5 6h-255q-3 0 -5 -4zM227 765h94q2 0 4 2l103 158l20 -146q0 -4 5 -4h93q5 0 5 6l-37 270q0 4 -5 4h-85q-2 0 -4 -2
l-197 -280q-2 -3 -0.5 -5.5t4.5 -2.5z" />
    <glyph glyph-name="Edieresis" unicode="&#xcb;" horiz-adv-x="314" 
d="M247 715l-215 -714q-2 -6 5 -6h255q3 0 5 4l39 130q2 6 -5 6h-124l50 168h121q3 0 5 4l40 130q2 6 -5 6h-118l40 136h127q3 0 5 4l40 130q2 6 -5 6h-255q-3 0 -5 -4zM592 974h-110q-3 0 -5 -4l-39 -130q-2 -6 5 -6h110q3 0 5 4l39 130q2 6 -5 6zM394 975h-110q-3 0 -5 -4
l-39 -130q-2 -6 5 -6h110q3 0 5 4l39 130q2 6 -5 6z" />
    <glyph glyph-name="Igrave" unicode="&#xcc;" horiz-adv-x="205" 
d="M41 -5h124q3 0 5 4l215 714q2 6 -5 6h-124q-3 0 -5 -4l-215 -714q-2 -6 5 -6zM336 975q-1 1 -4 1h-120q-4 0 -5 -3.5t1 -5.5l154 -154q1 -1 4 -1h121q4 0 5 3.5t-1 5.5z" />
    <glyph glyph-name="Iacute" unicode="&#xcd;" horiz-adv-x="205" 
d="M41 -5h124q3 0 5 4l215 714q2 6 -5 6h-124q-3 0 -5 -4l-215 -714q-2 -6 5 -6zM370 975l-157 -154q-2 -2 -1 -5.5t5 -3.5l122 1l158 154q2 2 1.5 5.5t-4.5 3.5h-120q-3 0 -4 -1z" />
    <glyph glyph-name="Icircumflex" unicode="&#xce;" horiz-adv-x="205" 
d="M41 -5h124q3 0 5 4l215 714q2 6 -5 6h-124q-3 0 -5 -4l-215 -714q-2 -6 5 -6zM168 765h94q2 0 4 2l103 158l20 -146q0 -4 5 -4h93q5 0 5 6l-37 270q0 4 -5 4h-85q-2 0 -4 -2l-197 -280q-2 -3 -0.5 -5.5t4.5 -2.5z" />
    <glyph glyph-name="Idieresis" unicode="&#xcf;" horiz-adv-x="205" 
d="M41 -5h124q3 0 5 4l215 714q2 6 -5 6h-124q-3 0 -5 -4l-215 -714q-2 -6 5 -6zM328 975h-110q-3 0 -5 -4l-39 -130q-2 -6 5 -6h110q3 0 5 4l39 130q2 6 -5 6zM526 974h-110q-3 0 -5 -4l-39 -130q-2 -6 5 -6h110q3 0 5 4l39 130q2 6 -5 6z" />
    <glyph glyph-name="Eth" unicode="&#xd0;" 
d="M215 580l143 -1q27 0 27 -19q0 -7 -1 -11q-2 -17 -8.5 -40.5t-20.5 -65.5q-12 -39 -31 -98.5t-45 -151.5v1q-10 -29 -18.5 -42t-20.5 -16q-4 0 -4 -3l-51 -131q-2 -7 5 -7q42 0 75 7.5t59 27t46 53t36 84.5l113 378q8 26 12 47t4 38q0 52 -33.5 70.5t-96.5 18.5h-153
q-3 0 -5 -4l-37 -129q-2 -6 5 -6zM62 313h196q3 0 5 4l36 120q2 6 -5 6h-196q-3 0 -5 -4l-36 -120q-2 -6 5 -6z" />
    <glyph glyph-name="Ntilde" unicode="&#xd1;" horiz-adv-x="456" 
d="M372 251l43 463q0 5 -5 5h-158q-3 0 -5 -4l-215 -714q-2 -6 5 -6h118q3 0 5 4l137 456l-39 -455q0 -5 5 -5h156q3 0 5 4l215 714q2 6 -5 6h-117q-3 0 -5 -4zM591 859l3 70q0 4 -3.5 5t-5.5 -2q-22 -25 -38 -38.5t-30 -13.5q-8 0 -16.5 5t-21.5 14l-10 7q-17 12 -32 18.5
t-30 6.5q-29 0 -54.5 -18.5t-47.5 -49.5l-3 -69q0 -4 3.5 -5t5.5 2q22 25 37.5 38.5t29.5 13.5q13 0 39 -19l10 -7q17 -12 32 -18.5t29 -6.5q29 0 54.5 18.5t48.5 48.5z" />
    <glyph glyph-name="Ograve" unicode="&#xd2;" 
d="M193 561l-122 -406q-8 -26 -12 -47t-4 -38q0 -52 33.5 -70.5t96.5 -18.5q41 0 74 7.5t59 27t46 53t36 84.5l122 406q15 51 15 85q0 52 -33 70.5t-96 18.5q-42 0 -74.5 -7.5t-58.5 -27t-46 -53t-36 -84.5zM205 154l122 404q8 35 42 35q22 0 22 -16q0 -7 -3 -17l-122 -404
v1q-7 -20 -16 -28t-26 -8q-23 0 -23 15q0 2 1 7t3 11zM402 973q-1 1 -4 1h-120q-4 0 -5 -3.5t1 -5.5l154 -154q1 -1 4 -1h121q4 0 5 3.5t-1 5.5z" />
    <glyph glyph-name="Oacute" unicode="&#xd3;" 
d="M193 561l-122 -406q-8 -26 -12 -47t-4 -38q0 -52 33.5 -70.5t96.5 -18.5q41 0 74 7.5t59 27t46 53t36 84.5l122 406q15 51 15 85q0 52 -33 70.5t-96 18.5q-42 0 -74.5 -7.5t-58.5 -27t-46 -53t-36 -84.5zM205 154l122 404q8 35 42 35q22 0 22 -16q0 -7 -3 -17l-122 -404
v1q-7 -20 -16 -28t-26 -8q-23 0 -23 15q0 2 1 7t3 11zM459 975l-157 -154q-2 -2 -1 -5.5t5 -3.5l122 1l158 154q2 2 1.5 5.5t-4.5 3.5h-120q-3 0 -4 -1z" />
    <glyph glyph-name="Ocircumflex" unicode="&#xd4;" 
d="M193 561l-122 -406q-8 -26 -12 -47t-4 -38q0 -52 33.5 -70.5t96.5 -18.5q41 0 74 7.5t59 27t46 53t36 84.5l122 406q15 51 15 85q0 52 -33 70.5t-96 18.5q-42 0 -74.5 -7.5t-58.5 -27t-46 -53t-36 -84.5zM250 765h94q2 0 4 2l103 158l20 -146q0 -4 5 -4h93q5 0 5 6
l-37 270q0 4 -5 4h-85q-2 0 -4 -2l-197 -280q-2 -3 -0.5 -5.5t4.5 -2.5zM205 154l122 404q8 35 42 35q22 0 22 -16q0 -7 -3 -17l-122 -404v1q-7 -20 -16 -28t-26 -8q-23 0 -23 15q0 2 1 7t3 11z" />
    <glyph glyph-name="Otilde" unicode="&#xd5;" 
d="M193 561l-122 -406q-8 -26 -12 -47t-4 -38q0 -52 33.5 -70.5t96.5 -18.5q41 0 74 7.5t59 27t46 53t36 84.5l122 406q15 51 15 85q0 52 -33 70.5t-96 18.5q-42 0 -74.5 -7.5t-58.5 -27t-46 -53t-36 -84.5zM205 154l122 404q8 35 42 35q22 0 22 -16q0 -7 -3 -17l-122 -404
v1q-7 -20 -16 -28t-26 -8q-23 0 -23 15q0 2 1 7t3 11zM559 859l3 70q0 4 -3.5 5t-5.5 -2q-22 -25 -38 -38.5t-30 -13.5q-8 0 -16.5 5t-21.5 14l-10 7q-17 12 -32 18.5t-30 6.5q-29 0 -54.5 -18.5t-47.5 -49.5l-3 -69q0 -4 3.5 -5t5.5 2q22 25 37.5 38.5t29.5 13.5
q13 0 39 -19l10 -7q17 -12 32 -18.5t29 -6.5q29 0 54.5 18.5t48.5 48.5z" />
    <glyph glyph-name="Odieresis" unicode="&#xd6;" 
d="M193 561l-122 -406q-8 -26 -12 -47t-4 -38q0 -52 33.5 -70.5t96.5 -18.5q41 0 74 7.5t59 27t46 53t36 84.5l122 406q15 51 15 85q0 52 -33 70.5t-96 18.5q-42 0 -74.5 -7.5t-58.5 -27t-46 -53t-36 -84.5zM205 154l122 404q8 35 42 35q22 0 22 -16q0 -7 -3 -17l-122 -404
v1q-7 -20 -16 -28t-26 -8q-23 0 -23 15q0 2 1 7t3 11zM420 974h-110q-3 0 -5 -4l-39 -130q-2 -6 5 -6h110q3 0 5 4l39 130q2 6 -5 6zM618 973h-110q-3 0 -5 -4l-39 -130q-2 -6 5 -6h110q3 0 5 4l39 130q2 6 -5 6z" />
    <glyph glyph-name="multiply" unicode="&#xd7;" horiz-adv-x="480" 
d="M334 105q2 -6 8 -2l87 77q3 3 2 6l-30 74l208 176q3 3 2 6l-32 76q-2 6 -8 2l-207 -178l-77 176q-2 6 -8 2l-88 -76q-3 -3 -2 -6l78 -179l-208 -179q-3 -3 -2 -6l32 -76q2 -6 8 -2l207 177zM381 -2q2 -6 8 -2l88 76q3 3 2 6l-35 82q-2 6 -8 2l-88 -79q-3 -3 -2 -6z" />
    <glyph glyph-name="Oslash" unicode="&#xd8;" 
d="M454 807q2 6 -5 6h-30q-3 0 -5 -4l-24 -76q-38 -2 -68 -10.5t-54 -28.5t-42 -52.5t-33 -80.5l-122 -406v1q-16 -49 -16 -86q0 -47 27 -66.5t80 -21.5l-28 -93q-2 -6 5 -6h29q3 0 5 4l29 94q37 1 67 10t54 28.5t43 52t34 81.5l122 406q15 51 15 85q0 48 -27.5 67t-78.5 21
zM205 154l122 404q6 24 20 31l-141 -465q-5 4 -5 11t4 18v1zM391 577q0 -7 -3 -17l-122 -404v1q-9 -24 -20 -31l141 462q4 -6 4 -11z" />
    <glyph glyph-name="Ugrave" unicode="&#xd9;" 
d="M400 153l168 560q2 6 -5 6h-124q-3 0 -5 -4l-162 -538q-11 -35 -21 -45.5t-27 -10.5q-11 0 -16 3t-5 13q0 11 8 38l162 538q2 6 -5 6h-124q-3 0 -5 -4l-168 -560q-8 -26 -12 -47t-4 -38q0 -52 33.5 -70.5t96.5 -18.5q41 0 74 7.5t59 27t46 53t36 84.5zM387 975q-1 1 -4 1
h-120q-4 0 -5 -3.5t1 -5.5l154 -154q1 -1 4 -1h121q4 0 5 3.5t-1 5.5z" />
    <glyph glyph-name="Uacute" unicode="&#xda;" 
d="M400 153l168 560q2 6 -5 6h-124q-3 0 -5 -4l-162 -538q-11 -35 -21 -45.5t-27 -10.5q-11 0 -16 3t-5 13q0 11 8 38l162 538q2 6 -5 6h-124q-3 0 -5 -4l-168 -560q-8 -26 -12 -47t-4 -38q0 -52 33.5 -70.5t96.5 -18.5q41 0 74 7.5t59 27t46 53t36 84.5zM453 974l-157 -154
q-2 -2 -1 -5.5t5 -3.5l122 1l158 154q2 2 1.5 5.5t-4.5 3.5h-120q-3 0 -4 -1z" />
    <glyph glyph-name="Ucircumflex" unicode="&#xdb;" 
d="M400 153l168 560q2 6 -5 6h-124q-3 0 -5 -4l-162 -538q-11 -35 -21 -45.5t-27 -10.5q-11 0 -16 3t-5 13q0 11 8 38l162 538q2 6 -5 6h-124q-3 0 -5 -4l-168 -560q-8 -26 -12 -47t-4 -38q0 -52 33.5 -70.5t96.5 -18.5q41 0 74 7.5t59 27t46 53t36 84.5zM252 765h94
q2 0 4 2l103 158l20 -146q0 -4 5 -4h93q5 0 5 6l-37 270q0 4 -5 4h-85q-2 0 -4 -2l-197 -280q-2 -3 -0.5 -5.5t4.5 -2.5z" />
    <glyph glyph-name="Udieresis" unicode="&#xdc;" 
d="M400 153l168 560q2 6 -5 6h-124q-3 0 -5 -4l-162 -538q-11 -35 -21 -45.5t-27 -10.5q-11 0 -16 3t-5 13q0 11 8 38l162 538q2 6 -5 6h-124q-3 0 -5 -4l-168 -560q-8 -26 -12 -47t-4 -38q0 -52 33.5 -70.5t96.5 -18.5q41 0 74 7.5t59 27t46 53t36 84.5zM615 977h-110
q-3 0 -5 -4l-39 -130q-2 -6 5 -6h110q3 0 5 4l39 130q2 6 -5 6zM417 978h-110q-3 0 -5 -4l-39 -130q-2 -6 5 -6h110q3 0 5 4l39 130q2 6 -5 6z" />
    <glyph glyph-name="Yacute" unicode="&#xdd;" horiz-adv-x="394" 
d="M339 473l14 241q0 5 -5 5h-130q-5 0 -5 -5l-2 -441l-82 -272q-2 -6 5 -6h124q3 0 5 4l82 271l264 441q4 8 -4 8h-130q-1 0 -4 -3zM466 975l-157 -154q-2 -2 -1 -5.5t5 -3.5l122 1l158 154q2 2 1.5 5.5t-4.5 3.5h-120q-3 0 -4 -1z" />
    <glyph glyph-name="Thorn" unicode="&#xde;" horiz-adv-x="341" 
d="M190 109h23q44 0 76 7.5t55.5 26.5t40 51.5t30.5 81.5l40 136q8 27 12 48.5t4 39.5q0 47 -29.5 64t-94.5 17h-21l39 132q2 6 -5 6h-117q-3 0 -5 -4l-208 -714q-2 -6 5 -6h117q3 0 5 4zM286 441h14q22 0 24 -14v-5q0 -21 -15 -76q-10 -32 -17.5 -52.5t-14.5 -28.5
q-12 -16 -36 -16h-11z" />
    <glyph glyph-name="germandbls" unicode="&#xdf;" horiz-adv-x="341" 
d="M180 538q-2 -6 5 -6h113q3 0 5 3l5 15q16 57 48 57q9 0 22.5 -7t13.5 -33q0 -11 -3.5 -27t-12.5 -38q-5 -12 -15.5 -32.5t-23 -40.5t-25 -34.5t-21.5 -14.5q-3 0 -5 -4l-35 -122q-2 -6 5 -6h13q6 0 6 -9q0 -8 -4 -19l-60 -204q-8 -30 -21 -30h-14q-3 0 -5 -4l-36 -126
q-2 -6 5 -6h66q39 0 70.5 36t50.5 99l64 221q8 29 8 49q0 54 -46 65q21 10 40.5 33t36 52t29 60t20.5 57q10 34 10 73q0 28 -6.5 53t-19.5 44t-32.5 30t-45.5 11q-36 0 -67.5 -12.5t-56.5 -34.5t-43.5 -52t-28.5 -65zM142 -5q3 0 5 4l139 478q2 6 -5 6h-113q-3 0 -5 -4
l-139 -478q-2 -6 5 -6h113z" />
    <glyph glyph-name="agrave" unicode="&#xe0;" 
d="M326 712l-5 -3h3l-313 -704h118l-1 -3l5 3h-4l49 123q1 3 5 3h86q7 0 5 -6l-22 -120h117l111 704h-156zM403 975q-1 1 -4 1h-120q-4 0 -5 -3.5t1 -5.5l154 -154q1 -1 4 -1h121q4 0 5 3.5t-1 5.5zM230 258l133 338q1 3 5 3h1q7 0 5 -6l-74 -338q0 -4 -5 -4h-60q-7 0 -5 7z
M3 5l5 -7l3 7h-8zM486 709l-5 6l-1 -6h6zM251 -1l1 6h-6zM374 5h-5v-4z" />
    <glyph glyph-name="aacute" unicode="&#xe1;" 
d="M3 -5h130q3 0 5 3l49 123h76l-22 -120q-2 -6 5 -6h128q5 0 5 4l112 714q0 6 -5 6h-165q-2 0 -5 -3l-318 -714q-2 -3 0 -5t5 -2zM437 975l-157 -154q-2 -2 -1 -5.5t5 -3.5l122 1l158 154q2 2 1.5 5.5t-4.5 3.5h-120q-3 0 -4 -1zM291 261h-48l108 275z" />
    <glyph glyph-name="acircumflex" unicode="&#xe2;" 
d="M3 -5h130q3 0 5 3l49 123h76l-22 -120q-2 -6 5 -6h128q5 0 5 4l112 714q0 6 -5 6h-165q-2 0 -5 -3l-318 -714q-2 -3 0 -5t5 -2zM250 764h94q2 0 4 2l103 158l20 -146q0 -4 5 -4h93q5 0 5 6l-37 270q0 4 -5 4h-85q-2 0 -4 -2l-197 -280q-2 -3 -0.5 -5.5t4.5 -2.5zM291 261
h-48l108 275z" />
    <glyph glyph-name="atilde" unicode="&#xe3;" 
d="M3 -5h130q3 0 5 3l49 123h76l-22 -120q-2 -6 5 -6h128q5 0 5 4l112 714q0 6 -5 6h-165q-2 0 -5 -3l-318 -714q-2 -3 0 -5t5 -2zM558 858l3 70q0 4 -3.5 5t-5.5 -2q-22 -25 -38 -38.5t-30 -13.5q-8 0 -16.5 5t-21.5 14l-10 7q-17 12 -32 18.5t-30 6.5q-29 0 -54.5 -18.5
t-47.5 -49.5l-3 -69q0 -4 3.5 -5t5.5 2q22 25 37.5 38.5t29.5 13.5q13 0 39 -19l10 -7q17 -12 32 -18.5t29 -6.5q29 0 54.5 18.5t48.5 48.5zM291 261h-48l108 275z" />
    <glyph glyph-name="adieresis" unicode="&#xe4;" 
d="M3 -5h130q3 0 5 3l49 123h76l-22 -120q-2 -6 5 -6h128q5 0 5 4l112 714q0 6 -5 6h-165q-2 0 -5 -3l-318 -714q-2 -3 0 -5t5 -2zM607 972h-110q-3 0 -5 -4l-39 -130q-2 -6 5 -6h110q3 0 5 4l39 130q2 6 -5 6zM409 973h-110q-3 0 -5 -4l-39 -130q-2 -6 5 -6h110q3 0 5 4
l39 130q2 6 -5 6zM291 261h-48l108 275z" />
    <glyph glyph-name="aring" unicode="&#xe5;" 
d="M3 -5h130q3 0 5 3l49 123h76l-22 -120q-2 -6 5 -6h128q5 0 5 4l112 714q0 6 -5 6h-16q22 11 40.5 33t28.5 56l44 144q6 21 6 39q0 29 -15.5 45t-40.5 16h-51q-31 0 -61 -25t-45 -73l-44 -144q-6 -21 -6 -38q0 -37 24 -53h-29q-2 0 -5 -3l-318 -714q-2 -3 0 -5t5 -2z
M411 719l23 69q2 7 -5 7q-12 0 -12 13q0 4 1 7l38 129v-1q3 9 11.5 16.5t18.5 7.5q7 0 10 -3.5t3 -8.5q0 -3 -2 -9l-38 -128q-3 -13 -19 -21q-3 0 -3 -3zM291 261h-48l108 275z" />
    <glyph glyph-name="ae" unicode="&#xe6;" horiz-adv-x="504" 
d="M239 -5h238q3 0 5 4l37 130q2 6 -5 6h-117l49 168h113q3 0 5 4l36 130q2 6 -5 6h-111l39 136h119q3 0 5 4l37 130q2 6 -5 6h-316q-1 0 -4 -3l-361 -714q-4 -7 4 -7h121q2 0 5 3l58 122h81l-33 -119q-2 -6 5 -6zM305 260h-55l140 297z" />
    <glyph glyph-name="ccedilla" unicode="&#xe7;" horiz-adv-x="362" 
d="M193 561l-122 -406q-15 -48 -15 -82q0 -72 74 -87l-46 -53q-3 -3 -1 -5l8 -17q2 -5 6 -3q4 1 5 1q15 4 26 4q21 0 21 -15q0 -7 -4 -16q-7 -17 -22 -26t-29 -9q-22 0 -45 13q-5 3 -7 -1l-27 -39q-2 -4 1 -7q24 -20 73 -20q44 0 80 23.5t51 64.5q4 10 5.5 20t1.5 18
q0 23 -12 35.5t-35 12.5h-17l13 14h5h12q3 0 6 0.5t6 0.5t5 4l37 135q1 4 -1.5 5.5t-5.5 -0.5q-10 -5 -20 -5q-18 0 -18 16q0 8 5 28l115 382q8 27 18.5 36.5t24.5 9.5q8 0 14 -4.5t6 -12.5q0 -1 -2 -9l-31 -107q-2 -6 5 -6h124q3 0 5 4l30 101q14 48 14 80q0 49 -30.5 71.5
t-95.5 22.5q-86 0 -135.5 -40.5t-75.5 -131.5z" />
    <glyph glyph-name="egrave" unicode="&#xe8;" horiz-adv-x="314" 
d="M247 715l-215 -714q-2 -6 5 -6h255q3 0 5 4l39 130q2 6 -5 6h-124l50 168h121q3 0 5 4l40 130q2 6 -5 6h-118l40 136h127q3 0 5 4l40 130q2 6 -5 6h-255q-3 0 -5 -4zM390 975q-1 1 -4 1h-120q-4 0 -5 -3.5t1 -5.5l154 -154q1 -1 4 -1h121q4 0 5 3.5t-1 5.5z" />
    <glyph glyph-name="eacute" unicode="&#xe9;" horiz-adv-x="314" 
d="M247 715l-215 -714q-2 -6 5 -6h255q3 0 5 4l39 130q2 6 -5 6h-124l50 168h121q3 0 5 4l40 130q2 6 -5 6h-118l40 136h127q3 0 5 4l40 130q2 6 -5 6h-255q-3 0 -5 -4zM436 975l-157 -154q-2 -2 -1 -5.5t5 -3.5l122 1l158 154q2 2 1.5 5.5t-4.5 3.5h-120q-3 0 -4 -1z" />
    <glyph glyph-name="ecircumflex" unicode="&#xea;" horiz-adv-x="314" 
d="M247 715l-215 -714q-2 -6 5 -6h255q3 0 5 4l39 130q2 6 -5 6h-124l50 168h121q3 0 5 4l40 130q2 6 -5 6h-118l40 136h127q3 0 5 4l40 130q2 6 -5 6h-255q-3 0 -5 -4zM227 765h94q2 0 4 2l103 158l20 -146q0 -4 5 -4h93q5 0 5 6l-37 270q0 4 -5 4h-85q-2 0 -4 -2
l-197 -280q-2 -3 -0.5 -5.5t4.5 -2.5z" />
    <glyph glyph-name="edieresis" unicode="&#xeb;" horiz-adv-x="314" 
d="M247 715l-215 -714q-2 -6 5 -6h255q3 0 5 4l39 130q2 6 -5 6h-124l50 168h121q3 0 5 4l40 130q2 6 -5 6h-118l40 136h127q3 0 5 4l40 130q2 6 -5 6h-255q-3 0 -5 -4zM592 974h-110q-3 0 -5 -4l-39 -130q-2 -6 5 -6h110q3 0 5 4l39 130q2 6 -5 6zM394 975h-110q-3 0 -5 -4
l-39 -130q-2 -6 5 -6h110q3 0 5 4l39 130q2 6 -5 6z" />
    <glyph glyph-name="igrave" unicode="&#xec;" horiz-adv-x="205" 
d="M261 713l-5 -4h4l-212 -704h113l-1 -4l5 4h-4l212 704h-113zM336 975q-1 1 -4 1h-120q-4 0 -5 -3.5t1 -5.5l154 -154q1 -1 4 -1h121q4 0 5 3.5t-1 5.5zM41 5l5 -6l2 6h-7zM380 709l-5 6l-2 -6h7z" />
    <glyph glyph-name="iacute" unicode="&#xed;" horiz-adv-x="205" 
d="M41 -5h124q3 0 5 4l215 714q2 6 -5 6h-124q-3 0 -5 -4l-215 -714q-2 -6 5 -6zM370 975l-157 -154q-2 -2 -1 -5.5t5 -3.5l122 1l158 154q2 2 1.5 5.5t-4.5 3.5h-120q-3 0 -4 -1z" />
    <glyph glyph-name="icircumflex" unicode="&#xee;" horiz-adv-x="205" 
d="M41 -5h124q3 0 5 4l215 714q2 6 -5 6h-124q-3 0 -5 -4l-215 -714q-2 -6 5 -6zM168 765h94q2 0 4 2l103 158l20 -146q0 -4 5 -4h93q5 0 5 6l-37 270q0 4 -5 4h-85q-2 0 -4 -2l-197 -280q-2 -3 -0.5 -5.5t4.5 -2.5z" />
    <glyph glyph-name="idieresis" unicode="&#xef;" horiz-adv-x="205" 
d="M41 -5h124q3 0 5 4l215 714q2 6 -5 6h-124q-3 0 -5 -4l-215 -714q-2 -6 5 -6zM526 974h-110q-3 0 -5 -4l-39 -130q-2 -6 5 -6h110q3 0 5 4l39 130q2 6 -5 6zM328 975h-110q-3 0 -5 -4l-39 -130q-2 -6 5 -6h110q3 0 5 4l39 130q2 6 -5 6z" />
    <glyph glyph-name="eth" unicode="&#xf0;" 
d="M215 580l143 -1q27 0 27 -19q0 -7 -1 -11q-2 -17 -8.5 -40.5t-20.5 -65.5q-12 -39 -31 -98.5t-45 -151.5v1q-10 -29 -18.5 -42t-20.5 -16q-4 0 -4 -3l-51 -131q-2 -7 5 -7q42 0 75 7.5t59 27t46 53t36 84.5l113 378q8 26 12 47t4 38q0 52 -33.5 70.5t-96.5 18.5h-153
q-3 0 -5 -4l-37 -129q-2 -6 5 -6zM62 313h196q3 0 5 4l36 120q2 6 -5 6h-196q-3 0 -5 -4l-36 -120q-2 -6 5 -6z" />
    <glyph glyph-name="ntilde" unicode="&#xf1;" horiz-adv-x="456" 
d="M372 251l43 463q0 5 -5 5h-158q-3 0 -5 -4l-215 -714q-2 -6 5 -6h118q3 0 5 4l137 456l-39 -455q0 -5 5 -5h156q3 0 5 4l215 714q2 6 -5 6h-117q-3 0 -5 -4zM591 859l3 70q0 4 -3.5 5t-5.5 -2q-22 -25 -38 -38.5t-30 -13.5q-8 0 -16.5 5t-21.5 14l-10 7q-17 12 -32 18.5
t-30 6.5q-29 0 -54.5 -18.5t-47.5 -49.5l-3 -69q0 -4 3.5 -5t5.5 2q22 25 37.5 38.5t29.5 13.5q13 0 39 -19l10 -7q17 -12 32 -18.5t29 -6.5q29 0 54.5 18.5t48.5 48.5z" />
    <glyph glyph-name="ograve" unicode="&#xf2;" 
d="M203 559l-122 -406q-8 -26 -12 -46.5t-4 -36.5q0 -46 30.5 -62.5t89.5 -16.5q39 0 70.5 7t56.5 25.5t44 50.5t34 81l122 406q15 51 15 83q0 46 -30 62.5t-89 16.5q-40 0 -71.5 -7t-56 -25.5t-43.5 -50.5t-34 -81zM195 156l122 404q6 23 18 33t34 10q32 0 32 -26
q0 -9 -3 -19l-122 -405q-8 -23 -19.5 -32.5t-32.5 -9.5q-33 0 -33 25q0 5 1 9.5t3 10.5zM402 973q-1 1 -4 1h-120q-4 0 -5 -3.5t1 -5.5l154 -154q1 -1 4 -1h121q4 0 5 3.5t-1 5.5z" />
    <glyph glyph-name="oacute" unicode="&#xf3;" 
d="M193 561l-122 -406q-8 -26 -12 -47t-4 -38q0 -52 33.5 -70.5t96.5 -18.5q41 0 74 7.5t59 27t46 53t36 84.5l122 406q15 51 15 85q0 52 -33 70.5t-96 18.5q-42 0 -74.5 -7.5t-58.5 -27t-46 -53t-36 -84.5zM205 154l122 404q8 35 42 35q22 0 22 -16q0 -7 -3 -17l-122 -404
v1q-7 -20 -16 -28t-26 -8q-23 0 -23 15q0 2 1 7t3 11zM459 975l-157 -154q-2 -2 -1 -5.5t5 -3.5l122 1l158 154q2 2 1.5 5.5t-4.5 3.5h-120q-3 0 -4 -1z" />
    <glyph glyph-name="ocircumflex" unicode="&#xf4;" 
d="M193 561l-122 -406q-8 -26 -12 -47t-4 -38q0 -52 33.5 -70.5t96.5 -18.5q41 0 74 7.5t59 27t46 53t36 84.5l122 406q15 51 15 85q0 52 -33 70.5t-96 18.5q-42 0 -74.5 -7.5t-58.5 -27t-46 -53t-36 -84.5zM250 765h94q2 0 4 2l103 158l20 -146q0 -4 5 -4h93q5 0 5 6
l-37 270q0 4 -5 4h-85q-2 0 -4 -2l-197 -280q-2 -3 -0.5 -5.5t4.5 -2.5zM205 154l122 404q8 35 42 35q22 0 22 -16q0 -7 -3 -17l-122 -404v1q-7 -20 -16 -28t-26 -8q-23 0 -23 15q0 2 1 7t3 11z" />
    <glyph glyph-name="otilde" unicode="&#xf5;" 
d="M193 561l-122 -406q-8 -26 -12 -47t-4 -38q0 -52 33.5 -70.5t96.5 -18.5q41 0 74 7.5t59 27t46 53t36 84.5l122 406q15 51 15 85q0 52 -33 70.5t-96 18.5q-42 0 -74.5 -7.5t-58.5 -27t-46 -53t-36 -84.5zM205 154l122 404q8 35 42 35q22 0 22 -16q0 -7 -3 -17l-122 -404
v1q-7 -20 -16 -28t-26 -8q-23 0 -23 15q0 2 1 7t3 11zM559 859l3 70q0 4 -3.5 5t-5.5 -2q-22 -25 -38 -38.5t-30 -13.5q-8 0 -16.5 5t-21.5 14l-10 7q-17 12 -32 18.5t-30 6.5q-29 0 -54.5 -18.5t-47.5 -49.5l-3 -69q0 -4 3.5 -5t5.5 2q22 25 37.5 38.5t29.5 13.5
q13 0 39 -19l10 -7q17 -12 32 -18.5t29 -6.5q29 0 54.5 18.5t48.5 48.5z" />
    <glyph glyph-name="odieresis" unicode="&#xf6;" 
d="M193 561l-122 -406q-8 -26 -12 -47t-4 -38q0 -52 33.5 -70.5t96.5 -18.5q41 0 74 7.5t59 27t46 53t36 84.5l122 406q15 51 15 85q0 52 -33 70.5t-96 18.5q-42 0 -74.5 -7.5t-58.5 -27t-46 -53t-36 -84.5zM205 154l122 404q8 35 42 35q22 0 22 -16q0 -7 -3 -17l-122 -404
v1q-7 -20 -16 -28t-26 -8q-23 0 -23 15q0 2 1 7t3 11zM420 974h-110q-3 0 -5 -4l-39 -130q-2 -6 5 -6h110q3 0 5 4l39 130q2 6 -5 6zM618 973h-110q-3 0 -5 -4l-39 -130q-2 -6 5 -6h110q3 0 5 4l39 130q2 6 -5 6z" />
    <glyph glyph-name="divide" unicode="&#xf7;" horiz-adv-x="456" 
d="M117 248h379q3 0 5 4l36 120q2 6 -5 6h-379q-3 0 -5 -4l-36 -120q-2 -6 5 -6zM356 205h-110q-3 0 -5 -4l-39 -130q-2 -6 5 -6h110q3 0 5 4l39 130q2 6 -5 6zM445 563h-110q-3 0 -5 -4l-39 -130q-2 -6 5 -6h110q3 0 5 4l39 130q2 6 -5 6z" />
    <glyph glyph-name="oslash" unicode="&#xf8;" 
d="M454 807q2 6 -5 6h-30q-3 0 -5 -4l-24 -76q-38 -2 -68 -10.5t-54 -28.5t-42 -52.5t-33 -80.5l-122 -406v1q-16 -49 -16 -86q0 -47 27 -66.5t80 -21.5l-28 -93q-2 -6 5 -6h29q3 0 5 4l29 94q37 1 67 10t54 28.5t43 52t34 81.5l122 406q15 51 15 85q0 48 -27.5 67t-78.5 21
zM205 154l122 404q6 24 20 31l-141 -465q-5 4 -5 11t4 18v1zM391 577q0 -7 -3 -17l-122 -404v1q-9 -24 -20 -31l141 462q4 -6 4 -11z" />
    <glyph glyph-name="ugrave" unicode="&#xf9;" 
d="M444 713l-5 -4h4l-161 -534q-12 -40 -24.5 -52t-33.5 -12q-15 0 -23 5t-8 21q0 13 8 40l160 532h-113l1 4l-5 -4h4l-167 -556q-8 -26 -12 -46.5t-4 -36.5q0 -46 30.5 -62.5t89.5 -16.5q39 0 70.5 7t56.5 25.5t44 50.5t34 81l166 554h-113zM387 975q-1 1 -4 1h-120
q-4 0 -5 -3.5t1 -5.5l154 -154q1 -1 4 -1h121q4 0 5 3.5t-1 5.5zM563 709l-5 6l-2 -6h7zM368 709l-5 6l-2 -6h7z" />
    <glyph glyph-name="uacute" unicode="&#xfa;" 
d="M400 153l168 560q2 6 -5 6h-124q-3 0 -5 -4l-162 -538q-11 -35 -21 -45.5t-27 -10.5q-11 0 -16 3t-5 13q0 11 8 38l162 538q2 6 -5 6h-124q-3 0 -5 -4l-168 -560q-8 -26 -12 -47t-4 -38q0 -52 33.5 -70.5t96.5 -18.5q41 0 74 7.5t59 27t46 53t36 84.5zM453 974l-157 -154
q-2 -2 -1 -5.5t5 -3.5l122 1l158 154q2 2 1.5 5.5t-4.5 3.5h-120q-3 0 -4 -1z" />
    <glyph glyph-name="ucircumflex" unicode="&#xfb;" 
d="M400 153l168 560q2 6 -5 6h-124q-3 0 -5 -4l-162 -538q-11 -35 -21 -45.5t-27 -10.5q-11 0 -16 3t-5 13q0 11 8 38l162 538q2 6 -5 6h-124q-3 0 -5 -4l-168 -560q-8 -26 -12 -47t-4 -38q0 -52 33.5 -70.5t96.5 -18.5q41 0 74 7.5t59 27t46 53t36 84.5zM252 765h94
q2 0 4 2l103 158l20 -146q0 -4 5 -4h93q5 0 5 6l-37 270q0 4 -5 4h-85q-2 0 -4 -2l-197 -280q-2 -3 -0.5 -5.5t4.5 -2.5z" />
    <glyph glyph-name="udieresis" unicode="&#xfc;" 
d="M400 153l168 560q2 6 -5 6h-124q-3 0 -5 -4l-162 -538q-11 -35 -21 -45.5t-27 -10.5q-11 0 -16 3t-5 13q0 11 8 38l162 538q2 6 -5 6h-124q-3 0 -5 -4l-168 -560q-8 -26 -12 -47t-4 -38q0 -52 33.5 -70.5t96.5 -18.5q41 0 74 7.5t59 27t46 53t36 84.5zM417 978h-110
q-3 0 -5 -4l-39 -130q-2 -6 5 -6h110q3 0 5 4l39 130q2 6 -5 6zM615 977h-110q-3 0 -5 -4l-39 -130q-2 -6 5 -6h110q3 0 5 4l39 130q2 6 -5 6z" />
    <glyph glyph-name="yacute" unicode="&#xfd;" horiz-adv-x="394" 
d="M339 473l14 241q0 5 -5 5h-130q-5 0 -5 -5l-2 -442v1l-82 -272q-2 -6 5 -6h124q3 0 5 4l82 271l264 441q4 8 -4 8h-130q-1 0 -4 -3zM466 975l-157 -154q-2 -2 -1 -5.5t5 -3.5l122 1l158 154q2 2 1.5 5.5t-4.5 3.5h-120q-3 0 -4 -1z" />
    <glyph glyph-name="thorn" unicode="&#xfe;" horiz-adv-x="341" 
d="M190 109h23q44 0 76 7.5t55.5 26.5t40 51.5t30.5 81.5l40 136q8 27 12 48.5t4 39.5q0 47 -29.5 64t-94.5 17h-21l39 132q2 6 -5 6h-117q-3 0 -5 -4l-208 -714q-2 -6 5 -6h117q3 0 5 4zM286 441h14q22 0 24 -14v-5q0 -21 -15 -76q-10 -32 -17.5 -52.5t-14.5 -28.5
q-12 -16 -36 -16h-11z" />
    <glyph glyph-name="ydieresis" unicode="&#xff;" horiz-adv-x="394" 
d="M339 473l14 241q0 5 -5 5h-130q-5 0 -5 -5l-2 -442v1l-82 -272q-2 -6 5 -6h124q3 0 5 4l82 271l264 441q4 8 -4 8h-130q-1 0 -4 -3zM624 975h-110q-3 0 -5 -4l-39 -130q-2 -6 5 -6h110q3 0 5 4l39 130q2 6 -5 6zM426 976h-110q-3 0 -5 -4l-39 -130q-2 -6 5 -6h110
q3 0 5 4l39 130q2 6 -5 6z" />
    <glyph glyph-name="OE" unicode="&#x152;" horiz-adv-x="504" 
d="M408 733q-42 0 -74.5 -7.5t-58.5 -27t-46 -53t-36 -84.5l-122 -406q-8 -26 -12 -47t-4 -38q0 -52 33.5 -70.5t96.5 -18.5q29 0 53.5 3.5t44.5 11.5h197q3 0 5 4l39 130q2 6 -5 6h-124l50 168h121q3 0 5 4l40 130q2 6 -5 6h-118l44 149h127q3 0 5 4l40 130q2 6 -5 6h-291z
M205 154l122 404q8 35 42 35q22 0 22 -16q0 -7 -3 -17l-122 -404v1q-7 -20 -16 -28t-26 -8q-23 0 -23 15q0 2 1 7t3 11z" />
    <glyph glyph-name="oe" unicode="&#x153;" horiz-adv-x="504" 
d="M408 733q-42 0 -74.5 -7.5t-58.5 -27t-46 -53t-36 -84.5l-122 -406q-8 -26 -12 -47t-4 -38q0 -52 33.5 -70.5t96.5 -18.5q29 0 53.5 3.5t44.5 11.5h197q3 0 5 4l39 130q2 6 -5 6h-124l50 168h121q3 0 5 4l40 130q2 6 -5 6h-118l44 149h127q3 0 5 4l40 130q2 6 -5 6h-291z
M205 154l122 404q8 35 42 35q22 0 22 -16q0 -7 -3 -17l-122 -404v1q-7 -20 -16 -28t-26 -8q-23 0 -23 15q0 2 1 7t3 11z" />
    <glyph glyph-name="Scaron" unicode="&#x160;" horiz-adv-x="346" 
d="M608 1055h-94q-2 0 -4 -2l-110 -187l-13 174q0 5 -5 5h-93q-5 0 -5 -6l33 -315q-54 -16 -87.5 -59t-56.5 -118q-16 -54 -16 -95q0 -26 5.5 -46.5t14 -38t19.5 -32t22 -27.5q17 -21 31 -42t14 -51q0 -17 -6 -39q-9 -29 -20 -42t-29 -13q-6 0 -10 1q-4 2 -6 -3l-46 -131
q-2 -7 5 -7h18q46 0 80.5 9.5t60.5 33t45.5 61.5t36.5 95q8 27 11.5 50.5t3.5 43.5q0 27 -6 49t-15 40t-20 32.5t-22 27.5q-17 20 -30 39t-13 45q0 7 1 14t4 16q8 30 19 43t28 13q20 0 20 -21q0 -11 -6 -32v1l-13 -40q-2 -7 5 -7h121q3 0 5 4l17 56q15 49 15 83q0 45 -23 67
t-69 27l187 316q4 8 -4 8z" />
    <glyph glyph-name="scaron" unicode="&#x161;" horiz-adv-x="346" 
d="M359 494h121q3 0 5 4l17 56q15 49 15 83q0 45 -23 67t-69 27l187 316q4 8 -4 8h-94q-2 0 -4 -2l-110 -187l-13 174q0 5 -5 5h-93q-5 0 -5 -6l33 -315q-54 -16 -87.5 -59t-56.5 -118q-16 -54 -16 -95q0 -26 5.5 -46.5t14 -38t19.5 -32t22 -27.5q17 -21 31 -42t14 -51
q0 -17 -6 -39q-9 -29 -20 -42t-29 -13q-6 0 -10 1q-4 2 -6 -3l-46 -131q-2 -7 5 -7h18q46 0 80.5 9.5t60.5 33t45.5 61.5t36.5 95q8 27 11.5 50.5t3.5 43.5q0 27 -6 49t-15 40t-20 32.5t-22 27.5q-17 20 -30 39t-13 45q0 7 1 14t4 16q8 30 19 43t28 13q20 0 20 -21
q0 -11 -6 -32v1l-13 -40q-2 -7 5 -7z" />
    <glyph glyph-name="Ydieresis" unicode="&#x178;" horiz-adv-x="394" 
d="M339 473l14 241q0 5 -5 5h-130q-5 0 -5 -5l-2 -441l-82 -272q-2 -6 5 -6h124q3 0 5 4l82 271l264 441q4 8 -4 8h-130q-1 0 -4 -3zM624 975h-110q-3 0 -5 -4l-39 -130q-2 -6 5 -6h110q3 0 5 4l39 130q2 6 -5 6zM426 976h-110q-3 0 -5 -4l-39 -130q-2 -6 5 -6h110q3 0 5 4
l39 130q2 6 -5 6z" />
    <glyph glyph-name="florin" unicode="&#x192;" horiz-adv-x="341" 
d="M361 308q3 0 5 3l27 73q2 7 -5 7h-52l58 151q12 32 22.5 43.5t27.5 11.5h26q3 0 5 3l44 112q2 7 -5 7h-67q-23 0 -46.5 -10.5t-44.5 -29t-38 -44t-29 -55.5l-72 -189h-56q-4 0 -5 -3l-27 -73q-2 -7 5 -7h227zM-59 -177q-2 -7 5 -7h64q46 0 91 39q43 40 67 98l110 260
q2 7 -5 7h-104q-4 0 -5 -3l-99 -224q-13 -34 -23 -44.5t-28 -10.5h-26q-4 0 -5 -3z" />
    <glyph glyph-name="circumflex" unicode="&#x2c6;" horiz-adv-x="510" 
d="M222 765h94q2 0 4 2l103 158l20 -146q0 -4 5 -4h93q5 0 5 6l-37 270q0 4 -5 4h-85q-2 0 -4 -2l-197 -280q-2 -3 -0.5 -5.5t4.5 -2.5z" />
    <glyph glyph-name="tilde" unicode="&#x2dc;" horiz-adv-x="322" 
d="M346 859l3 70q0 4 -3.5 5t-5.5 -2q-22 -25 -38 -38.5t-30 -13.5q-8 0 -16.5 5t-21.5 14l-10 7q-17 12 -32 18.5t-30 6.5q-29 0 -54.5 -18.5t-47.5 -49.5l-3 -69q0 -4 3.5 -5t5.5 2q22 25 37.5 38.5t29.5 13.5q13 0 39 -19l10 -7q17 -12 32 -18.5t29 -6.5q29 0 54.5 18.5
t48.5 48.5z" />
    <glyph glyph-name="endash" unicode="&#x2013;" horiz-adv-x="456" 
d="M99 194h379q3 0 5 4l36 120q2 6 -5 6h-379q-3 0 -5 -4l-36 -120q-2 -6 5 -6z" />
    <glyph glyph-name="emdash" unicode="&#x2014;" horiz-adv-x="582" 
d="M96 193h512q3 0 5 4l36 120q2 6 -5 6h-512q-3 0 -5 -4l-36 -120q-2 -6 5 -6z" />
    <glyph glyph-name="quoteleft" unicode="&#x2018;" horiz-adv-x="184" 
d="M166 447h110q3 0 5 4l39 130q2 6 -5 6h-33l85 122q4 8 -4 8h-62q-2 0 -4 -2l-97 -131l-39 -131q-2 -6 5 -6z" />
    <glyph glyph-name="quoteright" unicode="&#x2019;" horiz-adv-x="184" 
d="M359 717h-110q-3 0 -5 -4l-39 -130q-2 -6 5 -6h32l-84 -122q-4 -8 4 -8h62q2 0 4 2l97 131l39 131q2 6 -5 6z" />
    <glyph glyph-name="quotesinglbase" unicode="&#x201a;" horiz-adv-x="173" 
d="M73 120l-82 -270q-2 -6 5 -6h95q3 0 5 4l82 270q2 6 -5 6h-95q-3 0 -5 -4z" />
    <glyph glyph-name="quotedblleft" unicode="&#x201c;" horiz-adv-x="355" 
d="M166 447h110q3 0 5 4l39 130q2 6 -5 6h-33l85 122q4 8 -4 8h-62q-2 0 -4 -2l-97 -131l-39 -131q-2 -6 5 -6zM338 447h110q3 0 5 4l39 130q2 6 -5 6h-33l85 122q4 8 -4 8h-62q-2 0 -4 -2l-97 -131l-39 -131q-2 -6 5 -6z" />
    <glyph glyph-name="quotedblright" unicode="&#x201d;" horiz-adv-x="245" 
d="M359 717h-110q-3 0 -5 -4l-39 -130q-2 -6 5 -6h32l-84 -122q-4 -8 4 -8h62q2 0 4 2l97 131l39 131q2 6 -5 6zM531 716h-110q-3 0 -5 -4l-39 -130q-2 -6 5 -6h32l-84 -122q-4 -8 4 -8h62q2 0 4 2l97 131l39 131q2 6 -5 6z" />
    <glyph glyph-name="quotedblbase" unicode="&#x201e;" horiz-adv-x="327" 
d="M73 120l-82 -270q-2 -6 5 -6h95q3 0 5 4l82 270q2 6 -5 6h-95q-3 0 -5 -4zM227 121l-82 -270q-2 -6 5 -6h95q3 0 5 4l82 270q2 6 -5 6h-95q-3 0 -5 -4z" />
    <glyph glyph-name="dagger" unicode="&#x2020;" horiz-adv-x="341" 
d="M161 509l-29 -98q-2 -6 5 -6h101l-36 -124q-2 -6 5 -6h89q3 0 5 4l37 126h104q3 0 5 4l29 98q2 6 -5 6h-101l53 182q2 6 -5 6h-90q-3 0 -5 -4l-53 -184h-104q-3 0 -5 -4zM215 -5q3 0 5 4l60 209q2 6 -5 6h-89q-3 0 -5 -4l-60 -209q-2 -6 5 -6h89z" />
    <glyph glyph-name="daggerdbl" unicode="&#x2021;" horiz-adv-x="341" 
d="M178 555q-3 0 -5 -4l-28 -94q-2 -6 5 -6h306q3 0 5 4l27 94q2 6 -5 6h-103l41 140q2 6 -5 6h-90q-3 0 -5 -4l-41 -142h-102zM86 241q-3 0 -5 -4l-27 -94q-2 -6 5 -6h100l-40 -136q-2 -6 5 -6h90q3 0 5 4l40 138h106q3 0 5 4l27 94q2 6 -5 6h-306z" />
    <glyph glyph-name="bullet" unicode="&#x2022;" horiz-adv-x="400" 
d="M156 358q-9 -32 -9 -61q0 -54 28.5 -89t76.5 -35q30 0 61 14.5t58 39.5t48.5 58t32.5 71q9 31 9 62q0 54 -28.5 88.5t-76.5 34.5q-30 0 -61 -14.5t-58 -39t-48.5 -58t-32.5 -71.5z" />
    <glyph glyph-name="ellipsis" unicode="&#x2026;" horiz-adv-x="583" 
d="M383 134h-110q-3 0 -5 -4l-39 -130q-2 -6 5 -6h110q3 0 5 4l39 130q2 6 -5 6zM585 136h-110q-3 0 -5 -4l-39 -130q-2 -6 5 -6h110q3 0 5 4l39 130q2 6 -5 6zM185 135h-110q-3 0 -5 -4l-39 -130q-2 -6 5 -6h110q3 0 5 4l39 130q2 6 -5 6z" />
    <glyph glyph-name="perthousand" unicode="&#x2030;" horiz-adv-x="764" 
d="M369 467l44 144q6 21 6 39q0 29 -15.5 45t-40.5 16h-51q-31 0 -61 -25t-45 -73l-44 -144q-6 -21 -6 -38q0 -30 15.5 -46t40.5 -16h22q3 0 5 3l25 75q2 7 -5 7q-12 0 -12 13q0 4 1 7l38 129v-1q3 9 11.5 16.5t18.5 7.5q7 0 10 -3.5t3 -8.5q0 -3 -2 -9l-38 -128
q-3 -13 -19 -21q-3 0 -3 -3l-26 -77q-2 -7 5 -7h17q31 0 61.5 25t44.5 73zM771 84l44 144q6 21 6 39q0 29 -15.5 45t-40.5 16h-51q-31 0 -61 -25t-45 -73l-44 -144q-6 -21 -6 -38q0 -30 15.5 -46t40.5 -16h22q3 0 5 3l25 75q2 7 -5 7q-12 0 -12 13q0 4 1 7l38 129v-1
q3 9 11.5 16.5t18.5 7.5q7 0 10 -3.5t3 -8.5q0 -3 -2 -9l-38 -128q-3 -13 -19 -21q-3 0 -3 -3l-26 -77q-2 -7 5 -7h17q31 0 61.5 25t44.5 73zM410 90l38 130v-1q5 14 19 21q3 0 3 3l24 78q2 6 -5 6h-16q-31 0 -61 -25t-45 -73l-42 -144q-6 -21 -6 -39q0 -29 15.5 -45
t40.5 -16h51q31 0 61 25t45 72l42 145q6 21 6 39q0 29 -15.5 45t-40.5 16h-23q-3 0 -5 -4l-22 -75q-2 -6 5 -6q12 -2 12 -12q0 -2 -2 -8l-38 -129q-2 -8 -9.5 -15.5t-18.5 -7.5q-8 0 -11 4.5t-3 9.5q0 3 1 6zM702 711h-58q-2 0 -4 -2l-612 -716q-2 -2 -1 -5t5 -3h58q2 0 4 2
l612 716q2 2 1 5t-5 3z" />
    <glyph glyph-name="guilsinglleft" unicode="&#x2039;" horiz-adv-x="193" 
d="M105 257l32 -125q2 -4 5 -4h83q7 0 5 6l-31 122l121 123q2 2 1 5.5t-5 3.5h-83q-3 0 -4 -1l-123 -125q-1 -1 -1 -5z" />
    <glyph glyph-name="guilsinglright" unicode="&#x203a;" horiz-adv-x="193" 
d="M210 388h-83q-7 0 -5 -7l41 -122l-113 -123q-2 -2 -1 -5t5 -3h84q2 0 4 2l114 125q1 1 1 5l-42 125q-2 3 -5 3z" />
    <glyph glyph-name="currency" unicode="&#x20ac;" horiz-adv-x="462" 
d="M163 395q-2 -7 5 -7l201 -1q3 0 5 4l48 156q8 27 18.5 36.5t24.5 9.5q8 0 14 -4.5t6 -12.5q0 -1 -2 -9l-31 -107q-2 -6 5 -6h124q3 0 5 4l30 101q14 48 14 80q0 49 -30.5 71.5t-95.5 22.5q-86 0 -135.5 -40.5t-75.5 -131.5l-24 -78h-74q-4 0 -5 -3zM144 347q-4 0 -5 -3
l-34 -93q-2 -7 5 -7h87l-26 -89q-15 -48 -15 -82q0 -48 30 -70t95 -22h12q3 0 6 0.5t6 0.5t5 4l37 135q1 4 -1.5 5.5t-5.5 -0.5q-10 -5 -20 -5q-18 0 -18 16q0 8 5 28l48 176q2 6 -5 6h-206z" />
    <glyph glyph-name="trademark" unicode="&#x2122;" horiz-adv-x="492" 
d="M467 463l49 250q2 6 -5 6h-106q-3 0 -5 -4l-115 -383q-2 -6 5 -6h63q3 0 5 4l75 250l-44 -248q-2 -6 5 -6h67q3 0 5 3l105 248l-73 -245q-2 -6 5 -6h62q3 0 5 4l116 383q2 6 -5 6h-106q-4 0 -5 -3zM242 639l-92 -307q-2 -6 5 -6h66q3 0 5 4l93 309h45q3 0 5 4l22 70
q2 6 -5 6h-165q-3 0 -5 -4l-22 -70q-2 -6 5 -6h43z" />
    </font>
</defs>
</svg>
